<svg width="27" height="27" viewBox="0 0 27 27" fill="none" xmlns="http://www.w3.org/2000/svg">
<path fill-rule="evenodd" clip-rule="evenodd" d="M13.5 0C20.852 0 26.8334 5.98133 26.8334 13.3333C26.8334 20.6853 20.852 26.6667 13.5 26.6667C6.14802 26.6667 0.166687 20.6853 0.166687 13.3333C0.166687 5.98133 6.14802 0 13.5 0ZM13.5 2C7.25069 2 2.16669 7.084 2.16669 13.3333C2.16669 19.5827 7.25069 24.6667 13.5 24.6667C19.7494 24.6667 24.8334 19.5827 24.8334 13.3333C24.8334 7.084 19.7494 2 13.5 2ZM13.0483 6.79387C13.6016 6.79387 14.0483 7.24187 14.0483 7.79387V13.6899L18.5883 16.3965C19.0616 16.6805 19.2176 17.2939 18.935 17.7685C18.747 18.0819 18.415 18.2565 18.075 18.2565C17.9003 18.2565 17.7243 18.2112 17.563 18.1165L12.5363 15.1179C12.235 14.9365 12.0483 14.6099 12.0483 14.2579V7.79387C12.0483 7.24187 12.4963 6.79387 13.0483 6.79387Z" fill="white"/>
</svg>
