<svg width="119" height="69" viewBox="0 0 119 69" fill="none" xmlns="http://www.w3.org/2000/svg">
<path d="M41.7149 20.441C40.6331 16.9694 38.6209 15.5247 36.4789 15.5247C35.8068 15.5039 35.138 15.6253 34.5164 15.8807C33.8948 16.1362 33.3345 16.52 32.8725 17.0069C32.4106 17.4938 32.0573 18.0727 31.8361 18.7055C31.6149 19.3383 31.5307 20.0106 31.5891 20.6782C31.5891 24.4947 36.1544 25.3572 36.1544 25.3572C35.9492 32.2946 33.0752 38.8876 28.1273 43.7716C28.0254 43.8625 27.8994 43.9223 27.7644 43.9439C27.6294 43.9655 27.4909 43.948 27.3656 43.8935C27.2403 43.839 27.1333 43.7498 27.0573 43.6364C26.9814 43.5231 26.9397 43.3904 26.9373 43.2541L27.1536 31.5888C27.1536 31.5888 27.1536 21.2172 16.8547 20.8076C15.35 20.6979 13.8393 20.913 12.4255 21.438C11.0118 21.963 9.72822 22.7857 8.66241 23.8499C7.59661 24.9141 6.7736 26.1948 6.24951 27.6048C5.72542 29.0147 5.51256 30.5207 5.62545 32.0201C5.68895 34.0554 6.35102 36.0274 7.52945 37.691C10.4936 41.3782 15.9244 43.9657 16.5518 38.1222C16.7465 36.2247 14.3882 35.5132 14.3882 35.5132C13.6482 35.245 13.0006 34.7717 12.5215 34.149C12.0423 33.5264 11.7516 32.7802 11.6836 31.9985C11.596 31.3788 11.6375 30.7478 11.8057 30.1448C11.9739 29.5419 12.265 28.98 12.661 28.4943C13.057 28.0086 13.5493 27.6095 14.1071 27.322C14.6648 27.0345 15.2761 26.8648 15.9027 26.8235C16.9667 26.7211 18.032 27.005 18.9026 27.623C19.7732 28.2411 20.3905 29.1517 20.6411 30.1872V49.5935C21.6364 53.2376 23.4105 53.4747 25.9636 53.4747C28.5167 53.4747 34.8995 45.9279 34.8995 45.9279C43.0131 35.7504 42.8616 24.1066 41.7149 20.441Z" fill="#D1D5DB"/>
<path d="M48.9198 28.2467C49.5293 28.251 50.1263 28.0745 50.6348 27.7397C51.1434 27.4049 51.5405 26.9269 51.7757 26.3666C52.0109 25.8062 52.0736 25.1888 51.9558 24.5929C51.8379 23.9969 51.5448 23.4494 51.1139 23.0199C50.6829 22.5903 50.1335 22.2983 49.5355 22.1808C48.9375 22.0634 48.318 22.1258 47.7557 22.3602C47.1934 22.5947 46.7138 22.9904 46.3779 23.4973C46.0419 24.0041 45.8648 24.599 45.8691 25.2064C45.8748 26.011 46.198 26.781 46.7689 27.35C47.3398 27.9189 48.1125 28.2411 48.9198 28.2467Z" fill="#D1D5DB"/>
<path d="M84.3818 28.2468C84.9904 28.2468 85.5853 28.0667 86.091 27.7292C86.5967 27.3918 86.9904 26.9124 87.2223 26.3516C87.4542 25.7909 87.5138 25.1741 87.3935 24.5796C87.2732 23.9851 86.9784 23.4396 86.5465 23.0122C86.1147 22.5849 85.5652 22.295 84.9678 22.1793C84.3704 22.0636 83.752 22.1273 83.191 22.3624C82.63 22.5974 82.1517 22.9932 81.8167 23.4996C81.4817 24.0059 81.3052 24.6 81.3095 25.2065C81.3095 25.6076 81.3891 26.0047 81.5437 26.375C81.6984 26.7452 81.9251 27.0814 82.2106 27.364C82.4962 27.6466 82.8351 27.8701 83.2077 28.0216C83.5803 28.1731 83.9794 28.2496 84.3818 28.2468Z" fill="#D1D5DB"/>
<path d="M110.583 27.8805C110.079 27.8122 109.565 27.8634 109.083 28.03C108.602 28.1965 108.166 28.4736 107.812 28.8389C107.459 29.2043 107.196 29.6475 107.046 30.1328C106.896 30.6181 106.862 31.1318 106.949 31.6324C106.581 32.1499 105.326 32.2361 104.59 32.2361C104.224 31.821 103.801 31.4582 103.335 31.158C99.484 28.5705 93.9235 30.2524 90.7213 34.9961C89.5205 36.6829 88.7281 38.6239 88.4062 40.6671C86.2425 44.5699 84.5982 45.1952 84.5982 45.1952C81.396 46.1439 81.9369 43.4917 81.9369 43.4917C81.9369 43.4917 84.8145 33.2496 84.9876 32.3439C85.442 30.1877 81.0065 28.2039 79.5569 31.1149C78.8862 32.4733 77.1769 38.8127 76.5278 41.2924C74.494 44.6346 73.1093 45.2814 73.1093 45.2814C69.8855 46.2302 70.448 43.578 70.448 43.578C70.448 43.578 75.4676 26.1339 75.684 25.293C76.3547 22.5977 71.3567 20.808 69.9936 23.7189C69.6475 24.4521 68.6305 28.0314 67.592 31.7402C67.3858 31.542 67.1691 31.3548 66.9429 31.1796C65.9379 30.4733 64.7692 30.0334 63.5466 29.9014C62.324 29.7694 61.0878 29.9495 59.9544 30.4249C57.9181 31.5501 56.2334 33.2141 55.0862 35.2333C53.926 36.9612 53.1512 38.9171 52.8144 40.9689C50.6507 44.5699 49.2227 45.1305 49.2227 45.1305C45.9989 46.0792 46.5615 43.4271 46.5615 43.4271C46.5615 43.4271 49.4175 33.1849 49.5905 32.3224C50.0449 30.1661 45.6311 28.1824 44.1815 31.0933C43.3376 32.7967 40.8711 42.2842 40.8711 42.2842C40.8711 42.2842 39.032 47.9121 44.7224 48.753C46.2947 48.9741 47.8977 48.7798 49.371 48.1895C50.8443 47.5991 52.1361 46.6335 53.1173 45.3892C53.3698 46.2218 53.8491 46.9683 54.502 47.5455C55.7294 48.503 57.2769 48.958 58.8293 48.8177C61.0786 48.7353 63.2287 47.8736 64.9091 46.3811C65.2471 47.0943 65.7705 47.7043 66.4249 48.1479C67.0793 48.5915 67.8408 48.8525 68.6305 48.9039C70.0376 49.1299 71.4789 49.006 72.8264 48.5433C74.1739 48.0806 75.3859 47.2935 76.3547 46.2517C76.6628 46.9931 77.1723 47.6341 77.8259 48.1026C78.4795 48.5711 79.2513 48.8486 80.0546 48.9039C81.7584 49.1175 83.4883 48.858 85.0536 48.1542C86.6189 47.4503 87.9587 46.3293 88.9255 44.9149C89.4316 45.991 90.2156 46.9137 91.1973 47.5886C92.5632 48.4671 94.1587 48.9246 95.7842 48.9039C96.5938 48.8966 97.3997 48.7952 98.1858 48.6021C100.738 47.9819 102.972 46.4467 104.46 44.2896C106.127 41.8876 106.794 38.9348 106.321 36.0527C108.278 35.876 110.167 35.2486 111.838 34.2199C114.11 32.8614 114.283 28.0314 110.583 27.8805ZM60.452 44.0524C59.3918 44.0524 56.3844 42.8449 59.0889 37.8424C59.7548 36.5782 60.739 35.5082 61.9449 34.7374C62.2855 34.5587 62.6635 34.4626 63.0484 34.4571C63.4963 34.4938 63.9278 34.6421 64.3033 34.8883C64.675 35.1915 64.9746 35.5731 65.1803 36.0056C65.3861 36.4382 65.493 36.9109 65.4933 37.3896C65.5697 38.9448 65.1698 40.4864 64.3465 41.8099C63.9276 42.4695 63.3544 43.0181 62.6761 43.4086C61.9978 43.7992 61.2347 44.0201 60.452 44.0524ZM100.479 41.5511C99.6769 42.7394 98.4574 43.5855 97.0607 43.923C96.5461 44.0794 96.0052 44.1313 95.47 44.0758C94.9349 44.0202 94.4164 43.8583 93.9451 43.5996C92.4305 42.5646 93.2744 39.8261 94.724 37.6914C96.1736 35.5567 99.0513 34.1121 100.631 35.1471C102.21 36.1821 102.102 39.1792 100.479 41.5511Z" fill="#D1D5DB"/>
</svg>
