<svg width="15" height="15" viewBox="0 0 15 15" fill="none" xmlns="http://www.w3.org/2000/svg">
<path d="M7 12C9.76142 12 12 9.98528 12 7.5C12 5.01472 9.76142 3 7 3C4.23858 3 2 5.01472 2 7.5C2 9.98528 4.23858 12 7 12Z" fill="white"/>
<path d="M15 7.5L13.3406 5.5072L13.575 2.86649L11.1094 2.27749L9.825 0L7.5 1.05039L5.18438 0L3.89062 2.27749L1.43437 2.86649L1.66875 5.5072L0 7.5L1.65937 9.4928L1.425 12.1335L3.89062 12.7225L5.175 15L7.5 13.9398L9.81563 14.9902L11.1 12.7127L13.5656 12.1237L13.3312 9.48298L15 7.5ZM6.17813 10.5137L4.19062 8.43259L4.85625 7.7356L6.17813 9.11976L10.1531 4.95746L10.8188 5.65445L6.17813 10.5137Z" fill="#77BCA0"/>
</svg>
