<svg width="43" height="27" viewBox="0 0 43 27" fill="none" xmlns="http://www.w3.org/2000/svg">
<path d="M0.5 4.21707V3.65064L0.668562 3.45242L0.977592 3.84892L1.34281 3.73563H1.42709L1.62375 3.84892L1.8204 3.36745C1.52074 3.32025 0.910167 3.20885 0.865217 3.14088C0.80903 3.05591 0.921405 2.85764 0.865217 2.85764C0.80903 2.85764 0.668562 2.63109 0.668562 2.46116C0.668562 2.29123 0.5 2.31955 0.5 2.1213V1.61151V1.21501C0.5 1.07906 0.612375 1.15837 0.668562 1.21501C0.818395 1.20557 1.14615 1.19235 1.25853 1.21501C1.399 1.24333 1.67993 1.27165 1.8204 1.18669C1.93278 1.11872 2.01706 1.15837 2.04515 1.18669C2.09197 1.15837 2.20809 1.09606 2.29799 1.0734C2.41037 1.04508 2.60702 1.52655 2.7194 1.61151C2.83177 1.69648 3.00033 1.7248 3.11271 1.75312C3.20261 1.77578 3.20635 2.00801 3.19699 2.1213L3.50602 2.46116L3.28127 3.05591L3.67458 2.85764L3.87124 2.46116H4.62977V2.17792H5.55686C5.68796 2.27233 6.00074 2.40451 6.20301 2.17792C6.40528 1.95132 6.5495 2.27233 6.59632 2.46116C6.88662 2.59332 7.54589 2.85764 7.86054 2.85764C8.25385 2.85764 8.73144 3.14088 8.87191 3.05591C8.98428 2.98794 9.53679 3.08424 9.799 3.14088C9.96756 3.29192 10.344 3.594 10.5013 3.594C10.6587 3.594 10.9977 3.76395 11.1475 3.84892L13.1983 4.35871H14.4625C14.6311 4.25485 15.0581 4.04714 15.4177 4.04714H17.3562C18.3114 4.04714 18.789 3.594 19.0699 3.594H19.5756C19.7348 3.34854 20.1318 2.85764 20.4465 2.85764C20.8398 2.85764 20.6993 2.17792 20.8398 2.17792C20.9765 2.17792 21.2728 1.8561 21.6252 1.47338L21.6545 1.44155C22.0197 1.04503 23.0873 0.676898 23.593 0.308717C24.0987 -0.0594643 24.6605 0.223725 24.8572 0.025474C25.0538 -0.172777 27.2452 0.846801 27.498 0.988409C27.7508 1.13002 28.4251 1.38491 29.2679 1.44155C29.9421 1.48687 30.3729 1.95134 30.504 2.17792C30.9535 2.37617 31.9143 2.78966 32.1615 2.85764C32.4088 2.92561 33.0137 3.37687 33.2853 3.594L34.9709 4.04714L37.5274 5.4349C38.0425 6.01078 39.0726 7.23049 39.0726 7.50238C39.0726 7.77427 39.9716 8.76741 40.4211 9.23L41.1515 9.45657L42.5 10.5328V11.1842V12.2321C42.5 12.5153 41.91 12.8835 41.1515 13.2233C40.5447 13.4952 40.0559 13.7709 39.8873 13.8747V14.4978C39.6906 14.6772 39.2524 15.0359 39.0726 15.0359H37.8084H36.9936H36.7127L36.3475 15.744L36.1227 16.367L35.3642 17.0751L34.4652 17.3583C33.9876 17.4716 32.9594 17.6982 32.6672 17.6982H31.1221L30.504 18.3779L29.2679 19.2275L28.0599 20.7852V21.5499V22.1163L27.498 22.6261L27.1328 23.2775L26.7676 23.9572L27.1328 24.6936V25.3733L26.7676 26.3363L25.1662 26.6761L22.5254 26.8744C22.2351 27.0443 21.6545 27.1746 21.6545 26.3363C21.6545 25.4979 22.2351 25.666 22.5254 25.8548L23.902 24.6936H24.4358V23.1359C24.5763 23.6929 24.8797 24.5463 24.9696 23.5041C25.0595 22.4619 23.7522 20.7097 23.0873 19.9639L21.6545 18.8877L20.4465 17.0751C19.8003 16.8013 18.2777 15.9649 17.3562 14.8094C16.4347 13.6538 14.2003 13.044 13.1983 12.8835C13.0391 12.7041 12.6421 12.2661 12.3274 11.9489C11.9341 11.5524 11.8498 11.9489 11.6813 11.7506C11.5127 11.5524 10.6699 11.5524 10.3047 11.5524C9.93946 11.5524 8.87191 11.9489 8.73144 11.9489C8.59097 11.9489 6.96154 11.7506 7.07391 11.5524C7.16381 11.3938 6.79298 11.4863 6.59632 11.5524L5.78161 11.9489C5.58495 11.7601 5.16916 11.3201 5.07926 11.0709C4.96689 10.7594 4.51739 10.5611 4.37692 10.3912C4.26455 10.2552 4.10535 9.91916 4.0398 9.76811L3.28127 9.23V8.49364L2.7194 7.95553L2.18562 7.33245V6.96427L2.04515 6.53945C1.97023 6.45448 1.78107 6.25623 1.62375 6.14294C1.46642 6.02966 1.3709 5.98245 1.34281 5.97301L1.11806 5.63315V5.40658V5.20833L0.668562 4.55693L0.5 4.21707Z" fill="white"/>
</svg>
