<svg width="20" height="21" viewBox="0 0 20 21" fill="none" xmlns="http://www.w3.org/2000/svg">
<path fill-rule="evenodd" clip-rule="evenodd" d="M15.3358 5.10044C14.6428 4.40284 13.8182 3.8497 12.9099 3.47306C12.0015 3.09643 11.0275 2.90377 10.0442 2.90627C5.92083 2.90627 2.56417 6.26211 2.5625 10.3871C2.5625 11.7054 2.90667 12.9921 3.56083 14.1271L2.5 18.0029L6.46583 16.9621C7.56283 17.5593 8.79183 17.8724 10.0408 17.8729H10.0442C14.1667 17.8729 17.5233 14.5171 17.525 10.3921C17.5278 9.40918 17.3358 8.43543 16.9601 7.52716C16.5843 6.61888 16.0323 5.79408 15.3358 5.10044ZM10.0442 16.6104H10.0417C8.92793 16.6106 7.83469 16.3109 6.87667 15.7429L6.65 15.6079L4.29667 16.2254L4.92417 13.9313L4.77667 13.6963C4.15399 12.705 3.82436 11.5578 3.82583 10.3871C3.8275 6.95877 6.61667 4.16961 10.0467 4.16961C10.8635 4.16779 11.6727 4.32801 12.4272 4.64098C13.1818 4.95396 13.8667 5.41348 14.4425 5.99294C15.0214 6.56964 15.4802 7.25535 15.7924 8.01044C16.1047 8.76553 16.2641 9.57501 16.2617 10.3921C16.26 13.8204 13.4708 16.6104 10.0442 16.6104ZM13.455 11.9529C13.2675 11.8588 12.3492 11.4071 12.1775 11.3446C12.0067 11.2821 11.8825 11.2513 11.7575 11.4379C11.6325 11.6246 11.2742 12.0454 11.165 12.1704C11.0558 12.2954 10.9467 12.3104 10.76 12.2171C10.5733 12.1238 9.97083 11.9263 9.25667 11.2896C8.70083 10.7938 8.32583 10.1821 8.21667 9.99461C8.1075 9.80711 8.205 9.70627 8.29917 9.61294C8.38333 9.52961 8.48583 9.39461 8.57917 9.28544C8.6725 9.17627 8.70333 9.09877 8.76583 8.97377C8.82833 8.84877 8.7975 8.73961 8.75 8.64627C8.70333 8.55211 8.32917 7.63211 8.17333 7.25794C8.0225 6.89544 7.86833 6.94377 7.75333 6.93877C7.63423 6.9339 7.51504 6.93168 7.39583 6.93211C7.30105 6.93452 7.20778 6.9565 7.12188 6.99665C7.03599 7.0368 6.95931 7.09426 6.89667 7.16544C6.725 7.35294 6.2425 7.80461 6.2425 8.72461C6.2425 9.64461 6.9125 10.5338 7.00583 10.6588C7.09917 10.7838 8.32417 12.6713 10.1992 13.4813C10.6458 13.6738 10.9942 13.7888 11.265 13.8754C11.7125 14.0179 12.12 13.9971 12.4425 13.9496C12.8017 13.8963 13.5483 13.4979 13.7042 13.0613C13.86 12.6246 13.86 12.2504 13.8133 12.1721C13.7667 12.0938 13.6408 12.0463 13.455 11.9529Z" fill="white"/>
</svg>
