<svg width="119" height="69" viewBox="0 0 119 69" fill="none" xmlns="http://www.w3.org/2000/svg">
<path d="M86.0478 2.52246H32.9738C29.9028 2.52246 27.4133 5.0035 27.4133 8.06402V60.9568C27.4133 64.0174 29.9028 66.4984 32.9738 66.4984H86.0478C89.1188 66.4984 91.6084 64.0174 91.6084 60.9568V8.06402C91.6084 5.0035 89.1188 2.52246 86.0478 2.52246Z" fill="#E5E7EB"/>
<path d="M76.398 24.7324C76.398 24.7324 73.4771 16.1074 68.8253 16.1074C65.6447 16.1074 61.9449 19.7515 59.5 29.0449C57.0551 19.7515 53.3553 16.1074 50.1747 16.1074C45.5229 16.1074 42.602 24.7324 42.602 24.7324C37.9285 37.0446 38.2747 52.9793 38.2747 52.9793H43.7055C43.7055 52.9793 43.2727 33.8534 47.3187 22.2743C48.6602 18.5009 50.2613 18.6734 50.2613 18.6734C52.9658 18.6734 54.74 25.6165 55.8002 32.8184C56.5577 38.6163 56.9192 44.4588 56.882 50.3055H62.118C62.0808 44.4588 62.4423 38.6163 63.1998 32.8184C64.26 25.6165 66.0342 18.6949 68.7387 18.6734C68.7387 18.6734 70.3398 18.5009 71.6813 22.2743C75.7273 33.8534 75.2945 52.9793 75.2945 52.9793H80.6171C80.6171 52.9793 81.0715 37.0446 76.398 24.7324Z" fill="#D1D5DB"/>
<path d="M84.3818 48.2783C83.9539 48.2783 83.5356 48.4048 83.1798 48.6417C82.824 48.8786 82.5466 49.2154 82.3829 49.6094C82.2191 50.0034 82.1763 50.437 82.2598 50.8552C82.3432 51.2735 82.5493 51.6577 82.8519 51.9593C83.1545 52.2608 83.54 52.4662 83.9597 52.5494C84.3794 52.6326 84.8145 52.5899 85.2098 52.4267C85.6052 52.2635 85.9431 51.9871 86.1808 51.6325C86.4186 51.2779 86.5455 50.861 86.5455 50.4346C86.5455 49.8627 86.3175 49.3142 85.9117 48.9099C85.506 48.5055 84.9557 48.2783 84.3818 48.2783ZM84.3818 52.2027C84.0266 52.2027 83.6794 52.0977 83.3841 51.9011C83.0888 51.7044 82.8586 51.4249 82.7227 51.0979C82.5868 50.7709 82.5512 50.411 82.6205 50.0639C82.6898 49.7167 82.8608 49.3978 83.112 49.1475C83.3631 48.8972 83.6831 48.7268 84.0315 48.6577C84.3798 48.5887 84.7409 48.6241 85.0691 48.7596C85.3972 48.895 85.6777 49.1244 85.875 49.4187C86.0723 49.713 86.1776 50.059 86.1776 50.413C86.1776 50.8877 85.9884 51.3429 85.6517 51.6785C85.3149 52.0141 84.8581 52.2027 84.3818 52.2027Z" fill="#D1D5DB"/>
<path d="M84.966 50.5212C85.0731 50.4582 85.1624 50.3692 85.2256 50.2624C85.2828 50.1486 85.3125 50.0231 85.3125 49.8959C85.3125 49.7686 85.2828 49.6431 85.2256 49.5293C85.1609 49.4168 85.0657 49.3248 84.9509 49.2638C84.8361 49.2028 84.7063 49.1752 84.5765 49.1843H83.6029V51.7503H83.9491V50.6937H84.3818L84.9011 51.7503H85.3338L84.7496 50.6506L84.966 50.5212ZM83.9491 49.594H84.5982H84.7713C84.8257 49.6336 84.8702 49.6852 84.9011 49.7449C84.9159 49.8088 84.9159 49.8752 84.9011 49.939C84.9134 50.0031 84.9134 50.069 84.9011 50.1331C84.8702 50.1928 84.8257 50.2445 84.7713 50.284H84.5982H83.9491V49.594Z" fill="#D1D5DB"/>
</svg>
