<svg width="19" height="14" viewBox="0 0 19 14" fill="none" xmlns="http://www.w3.org/2000/svg">
<path d="M11.6509 12.1739C11.6509 12.1739 11.8103 11.9101 12.1289 11.3826C12.4476 10.8957 12.826 10.2667 13.2642 9.49565C13.7023 8.76522 14.0807 8.03478 14.3994 7.30435C14.1604 7.30435 13.782 7.08116 13.2642 6.63478C12.7065 6.18841 12.2086 5.68116 11.7704 5.11304C11.2925 4.58551 11.0535 4.13913 11.0535 3.77391C11.0535 2.63768 11.4319 1.72464 12.1887 1.03478C12.9057 0.344928 13.8218 1.45466e-06 14.9371 1.55216e-06C16.0126 1.64618e-06 16.9686 0.405799 17.805 1.21739C18.6017 2.02899 19 3.0029 19 4.13913C19 5.31594 18.7411 6.47246 18.2233 7.60869C17.7055 8.78551 17.108 9.86087 16.4308 10.8348C15.7138 11.8087 15.0964 12.5797 14.5786 13.1478C14.021 13.7159 13.7421 14 13.7421 14L11.6509 12.1739ZM0.597483 12.1739C0.597483 12.1739 0.756813 11.9101 1.07547 11.3826C1.39413 10.8957 1.77254 10.2667 2.21069 9.49565C2.64885 8.76522 3.02725 8.03478 3.34591 7.30435C3.10692 7.30435 2.72851 7.08116 2.21069 6.63478C1.65304 6.1884 1.15513 5.68116 0.716981 5.11304C0.238994 4.58551 -1.04528e-06 4.13913 -1.01336e-06 3.77391C-9.14023e-07 2.63768 0.378406 1.72464 1.13522 1.03478C1.8522 0.344927 2.76834 4.88332e-07 3.88365 5.85835e-07C4.95912 6.79856e-07 5.91509 0.405798 6.75157 1.21739C7.54822 2.02899 7.94654 3.0029 7.94654 4.13913C7.94654 5.31594 7.68763 6.47246 7.16981 7.60869C6.65199 8.78551 6.05451 9.86087 5.37736 10.8348C4.66038 11.8087 4.04298 12.5797 3.52516 13.1478C2.9675 13.7159 2.68868 14 2.68868 14L0.597483 12.1739Z" fill="#D1D5DB"/>
</svg>
