<svg width="20" height="21" viewBox="0 0 20 21" fill="none" xmlns="http://www.w3.org/2000/svg">
<g clip-path="url(#clip0_462_1324)">
<path d="M10 0.40625C15.5138 0.40625 20 4.04625 20 8.52125C20 10.3125 19.3062 11.925 17.8563 13.5138C15.7587 15.9288 11.0675 18.87 10 19.32C8.9625 19.7575 9.0825 19.0738 9.13 18.8038L9.13375 18.7812L9.27625 17.925C9.31 17.67 9.345 17.2738 9.24375 17.0212C9.13125 16.7425 8.68875 16.5975 8.36375 16.5275C3.5575 15.8938 0 12.5325 0 8.52125C0 4.04625 4.4875 0.40625 10 0.40625ZM6.2775 10.0138H4.37125V6.55375C4.37125 6.50225 4.35088 6.45284 4.31458 6.4163C4.27828 6.37977 4.229 6.35908 4.1775 6.35875H3.475C3.44939 6.35875 3.42404 6.36379 3.40038 6.37359C3.37672 6.38339 3.35522 6.39776 3.33711 6.41586C3.31901 6.43397 3.30464 6.45547 3.29484 6.47913C3.28504 6.50278 3.28 6.52814 3.28 6.55375V10.9113C3.28 10.9625 3.30125 11.0112 3.335 11.045V11.0463L3.3375 11.0487L3.34 11.0512C3.37625 11.0861 3.42471 11.1054 3.475 11.105H6.2775C6.385 11.105 6.47125 11.0175 6.47125 10.91V10.21C6.47141 10.1844 6.46653 10.159 6.45689 10.1353C6.44724 10.1116 6.43301 10.09 6.41502 10.0717C6.39703 10.0535 6.37562 10.039 6.35203 10.0291C6.32843 10.0191 6.30311 10.0139 6.2775 10.0138ZM7.26625 6.35875C7.21453 6.35875 7.16493 6.37929 7.12836 6.41586C7.09179 6.45243 7.07125 6.50203 7.07125 6.55375V10.9113C7.07125 11.0188 7.15875 11.105 7.26625 11.105H7.96875C8.07625 11.105 8.1625 11.0175 8.1625 10.9113V6.55375C8.1625 6.50225 8.14213 6.45284 8.10583 6.4163C8.06953 6.37977 8.02025 6.35908 7.96875 6.35875H7.26625ZM12.095 6.35875C12.0433 6.35875 11.9937 6.37929 11.9571 6.41586C11.9205 6.45243 11.9 6.50203 11.9 6.55375V9.14125L9.90375 6.44625C9.8987 6.43969 9.89328 6.43343 9.8875 6.4275V6.42625C9.88355 6.42187 9.87938 6.4177 9.875 6.41375L9.87125 6.41C9.86696 6.4059 9.86237 6.40214 9.8575 6.39875H9.85625L9.85 6.39375L9.84625 6.39125C9.8443 6.38979 9.8422 6.38854 9.84 6.3875L9.83 6.38125H9.8275L9.82375 6.37875L9.81125 6.37375L9.80625 6.37125C9.80216 6.36977 9.79798 6.36852 9.79375 6.3675H9.79125L9.7875 6.36625L9.77625 6.36375H9.76875L9.765 6.3625H9.76L9.7575 6.36125H9.04C8.9885 6.36125 8.93909 6.38162 8.90255 6.41792C8.86602 6.45422 8.84533 6.5035 8.845 6.555V10.9125C8.845 11.02 8.9325 11.1063 9.04 11.1063H9.74C9.84875 11.1063 9.93625 11.0187 9.93625 10.9125V8.325L11.9362 11.025C11.9495 11.0436 11.9661 11.0597 11.985 11.0725L11.9862 11.0738L11.9987 11.0813L12.0037 11.0837C12.007 11.0856 12.0103 11.0873 12.0138 11.0887L12.0225 11.0925L12.0288 11.095C12.0329 11.0964 12.037 11.0976 12.0413 11.0988H12.045C12.0613 11.1034 12.0781 11.1059 12.095 11.1063H12.795C12.9038 11.1063 12.9912 11.0187 12.9912 10.9125V6.55375C12.9912 6.50203 12.9707 6.45243 12.9341 6.41586C12.8976 6.37929 12.848 6.35875 12.7963 6.35875H12.095ZM16.8638 7.255V6.555C16.8639 6.52939 16.859 6.504 16.8494 6.48028C16.8397 6.45656 16.8255 6.43497 16.8075 6.41675C16.7895 6.39852 16.7681 6.38402 16.7445 6.37407C16.7209 6.36412 16.6956 6.35891 16.67 6.35875H13.8675C13.8171 6.35881 13.7686 6.37854 13.7325 6.41375H13.7312L13.73 6.41625L13.7275 6.42C13.6926 6.45581 13.6729 6.50374 13.6725 6.55375V10.9113C13.6725 10.9625 13.6938 11.0112 13.7275 11.045L13.73 11.0487L13.7325 11.0512C13.7688 11.086 13.8172 11.1053 13.8675 11.105H16.67C16.7775 11.105 16.8638 11.0175 16.8638 10.91V10.21C16.8639 10.1844 16.859 10.159 16.8494 10.1353C16.8397 10.1116 16.8255 10.09 16.8075 10.0717C16.7895 10.0535 16.7681 10.039 16.7445 10.0291C16.7209 10.0191 16.6956 10.0139 16.67 10.0138H14.7625V9.2775H16.6688C16.7763 9.2775 16.8625 9.19 16.8625 9.0825V8.3825C16.8627 8.35689 16.8578 8.3315 16.8481 8.30778C16.8385 8.28406 16.8243 8.26247 16.8063 8.24425C16.7883 8.22602 16.7669 8.21152 16.7433 8.20157C16.7197 8.19162 16.6944 8.18641 16.6688 8.18625H14.7625V7.45H16.6688C16.7763 7.45 16.8625 7.3625 16.8625 7.255H16.8638Z" fill="white"/>
</g>
<defs>
<clipPath id="clip0_462_1324">
<rect width="20" height="20" fill="white" transform="translate(0 0.40625)"/>
</clipPath>
</defs>
</svg>
