<svg width="20" height="21" viewBox="0 0 20 21" fill="none" xmlns="http://www.w3.org/2000/svg">
<path d="M15.8308 17.0726C8.72165 17.0826 3.32582 11.6226 3.33332 4.57509C3.33332 4.11426 3.70665 3.73926 4.16665 3.73926H6.36665C6.77915 3.73926 7.12999 4.04259 7.19082 4.45092C7.33591 5.43014 7.62075 6.38346 8.03665 7.28176L8.12249 7.46676C8.18014 7.59125 8.19255 7.73196 8.15756 7.86462C8.12257 7.99728 8.04238 8.11356 7.93082 8.19342C7.24915 8.68009 6.98915 9.65926 7.51999 10.4226C8.18831 11.3837 9.02244 12.2181 9.98332 12.8868C10.7475 13.4168 11.7267 13.1568 12.2125 12.4759C12.2923 12.364 12.4086 12.2835 12.5415 12.2484C12.6743 12.2132 12.8153 12.2256 12.94 12.2834L13.1242 12.3684C14.0225 12.7851 14.9758 13.0701 15.955 13.2151C16.3633 13.2759 16.6667 13.6268 16.6667 14.0401V16.2393C16.6667 16.3488 16.6451 16.4572 16.6031 16.5584C16.5612 16.6595 16.4998 16.7514 16.4223 16.8288C16.3448 16.9062 16.2528 16.9676 16.1516 17.0094C16.0504 17.0512 15.942 17.0727 15.8325 17.0726H15.8308Z" fill="white"/>
</svg>
