<svg width="63" height="55" viewBox="0 0 63 55" fill="none" xmlns="http://www.w3.org/2000/svg">
<rect x="0.985199" width="61.0296" height="54.3868" rx="27.1934" fill="#77BCA0"/>
<path fill-rule="evenodd" clip-rule="evenodd" d="M31.5008 29.8853L31.6513 29.8854L31.9881 29.8865C34.5622 29.9035 40.4448 30.1635 40.4448 34.1507C40.4448 38.1117 34.7673 38.37 32.0282 38.3868L31.0134 38.3868C28.4391 38.3699 22.5554 38.1102 22.5554 34.128C22.5554 30.162 28.4391 29.9034 31.0134 29.8865L31.3502 29.8854C31.4025 29.8853 31.4527 29.8853 31.5008 29.8853ZM31.5008 31.8853C28.3328 31.8853 24.5554 32.2747 24.5554 34.128C24.5554 35.9394 28.1073 36.3629 31.2112 36.3869L31.5008 36.388C34.6688 36.388 38.4448 36 38.4448 34.1507C38.4448 32.2787 34.6688 31.8853 31.5008 31.8853ZM42.1056 29.3443C45.3362 29.8283 46.0149 31.3456 46.0149 32.5336C46.0149 33.2589 45.7296 34.5829 43.8229 35.3096C43.7056 35.3536 43.5856 35.3749 43.4669 35.3749C43.0642 35.3749 42.6842 35.1296 42.5322 34.7309C42.3349 34.2149 42.5949 33.6363 43.1109 33.4403C44.0149 33.0963 44.0149 32.7163 44.0149 32.5336C44.0149 31.9496 43.2722 31.5416 41.8082 31.3229C41.2629 31.2403 40.8856 30.7323 40.9669 30.1843C41.0482 29.6376 41.5549 29.2736 42.1056 29.3443ZM22.0333 30.1843C22.1146 30.7323 21.7373 31.2403 21.192 31.3229C19.728 31.5416 18.9853 31.9496 18.9853 32.5336C18.9853 32.7163 18.9853 33.0949 19.8906 33.4403C20.4066 33.6363 20.6666 34.2149 20.4693 34.7309C20.3173 35.1296 19.9373 35.3749 19.5346 35.3749C19.416 35.3749 19.296 35.3536 19.1786 35.3096C17.2706 34.5816 16.9853 33.2576 16.9853 32.5336C16.9853 31.3469 17.664 29.8283 20.896 29.3443C21.4466 29.2749 21.9506 29.6376 22.0333 30.1843ZM31.5008 16C34.8608 16 37.5928 18.7333 37.5928 22.092C37.5928 25.4507 34.8608 28.184 31.5008 28.184H31.4648C29.8381 28.1787 28.3141 27.5413 27.1728 26.3893C26.0288 25.2387 25.4034 23.7107 25.41 22.088C25.41 18.7333 28.1421 16 31.5008 16ZM31.5008 18C29.2448 18 27.4101 19.836 27.4101 22.092C27.4061 23.1853 27.8248 24.208 28.5914 24.98C29.3581 25.752 30.3794 26.18 31.4674 26.184L31.5008 27.184V26.184C33.7568 26.184 35.5928 24.3493 35.5928 22.092C35.5928 19.836 33.7568 18 31.5008 18ZM39.7528 17.306C42.0968 17.6913 43.7994 19.6967 43.7994 22.074C43.7941 24.4673 42.0061 26.5207 39.6394 26.8527C39.5928 26.8593 39.5461 26.862 39.5008 26.862C39.0101 26.862 38.5821 26.5007 38.5114 26.0007C38.4354 25.4527 38.8154 24.9473 39.3634 24.8713C40.7501 24.6767 41.7968 23.474 41.7994 22.0713C41.7994 20.6807 40.8021 19.5047 39.4274 19.2793C38.8834 19.19 38.5141 18.6753 38.6034 18.13C38.6941 17.5847 39.2048 17.2193 39.7528 17.306ZM24.3981 18.13C24.4874 18.6753 24.1181 19.19 23.5741 19.2793C22.1994 19.5047 21.2021 20.6807 21.2021 22.074C21.2048 23.474 22.2514 24.678 23.6368 24.8713C24.1848 24.9473 24.5648 25.4527 24.4888 26.0007C24.4181 26.5007 23.9901 26.862 23.4994 26.862C23.4541 26.862 23.4074 26.8593 23.3608 26.8527C20.9941 26.5207 19.2074 24.4673 19.2021 22.0767C19.2021 19.6967 20.9048 17.6913 23.2488 17.306C23.8101 17.218 24.3074 17.5873 24.3981 18.13Z" fill="white"/>
</svg>
