<svg width="119" height="69" viewBox="0 0 119 69" fill="none" xmlns="http://www.w3.org/2000/svg">
<g style="mix-blend-mode:darken">
<path d="M56.4276 24.3877H46.9942L43.9434 30.188H45.4364L38.4045 44.1605H45.4364L46.8211 40.7752H50.8671V44.1605H57.358L56.4276 24.3877ZM48.79 36.053L50.9536 31.0936V36.053H48.79Z" fill="#D1D5DB"/>
</g>
<g style="mix-blend-mode:darken">
<path d="M37.3877 44.1816L40.4817 37.7129C39.5212 38.3768 38.4338 38.8363 37.2872 39.0626C36.1406 39.2889 34.9595 39.2772 33.8177 39.0282C33.0165 38.73 32.3354 38.1786 31.8783 37.4583C31.4212 36.7379 31.2132 35.8883 31.2862 35.0391C31.3565 34.3102 31.5763 33.6035 31.9319 32.9627C32.2876 32.3219 32.7715 31.7607 33.3537 31.3139C33.9358 30.8671 34.6039 30.5443 35.3164 30.3654C36.0289 30.1865 36.7707 30.1553 37.4958 30.2738C38.8891 30.3839 40.2059 30.9529 41.2389 31.891L44.3546 26.3926L40.1571 24.2363L39.6162 24.8832C37.6197 24.2781 35.4691 24.4318 33.5797 25.3145C32.6339 25.6471 31.7271 26.0809 30.8751 26.6082C29.3881 27.5326 28.1068 28.7507 27.1104 30.1876C27.1104 30.1876 23.3889 35.6429 25.8338 40.4729C27.0887 43.1251 29.9015 44.6345 34.034 44.6345C35.1699 44.6802 36.305 44.527 37.3877 44.1816Z" fill="#D1D5DB"/>
</g>
<g style="mix-blend-mode:darken">
<path d="M24.9251 25.6598C23.8712 24.7564 22.5044 24.2998 21.1171 24.3876H12.9818L9.95273 30.3604H11.3807L7.72418 44.1173H17.4605C19.3445 44.0734 21.1371 43.3 22.4585 41.9611C25.1198 39.3304 25.4444 35.4923 22.4585 33.7457C26.1584 31.8914 27.0887 27.8807 24.9251 25.6598ZM18.7587 38.1661C18.5446 38.4472 18.2597 38.667 17.933 38.8033C17.6063 38.9396 17.2493 38.9876 16.898 38.9423H14.9075L15.7296 35.9667H17.8933C18.1484 35.9684 18.3972 36.0463 18.6075 36.1902C18.8178 36.3342 18.98 36.5377 19.0731 36.7744C19.1663 37.0111 19.1861 37.2702 19.1301 37.5183C19.074 37.7663 18.9447 37.992 18.7587 38.1661ZM19.8622 31.5248C19.5668 31.9222 19.1359 32.1983 18.6505 32.3011H16.6384L17.1793 29.7567H19.3429C19.5355 29.7848 19.716 29.8674 19.8629 29.9947C20.0098 30.122 20.1169 30.2886 20.1716 30.4748C20.2263 30.6609 20.2262 30.8589 20.1713 31.045C20.1165 31.2311 20.0092 31.3977 19.8622 31.5248Z" fill="#D1D5DB"/>
</g>
<g style="mix-blend-mode:darken">
<path d="M63.8705 35.4276L63.5676 36.3979C64.3548 35.6549 65.4046 35.2519 66.4885 35.2767C66.9966 35.2618 67.4987 35.3888 67.9382 35.6432C68.1261 35.7555 68.2886 35.9054 68.4152 36.0836C68.5419 36.2618 68.6299 36.4643 68.6738 36.6782C69.0803 36.2354 69.5751 35.882 70.1265 35.6407C70.6779 35.3993 71.2738 35.2754 71.876 35.2767C72.2477 35.2408 72.6223 35.3013 72.9635 35.4524C73.3048 35.6036 73.6009 35.8402 73.8233 36.1392C74.1828 36.7991 74.2683 37.5733 74.0613 38.2954L72.4385 44.031H70.924L72.5251 38.2954C72.5546 38.0375 72.5546 37.7771 72.5251 37.5192C72.5251 36.8076 72.0274 36.4195 71.1187 36.4195C70.5551 36.4069 70.002 36.573 69.5393 36.8939C69.0596 37.2133 68.7014 37.6841 68.5223 38.2307L66.8563 44.031H65.3202L67.0727 38.4032C67.1475 38.1757 67.1726 37.9349 67.1465 37.6969C67.1204 37.4589 67.0436 37.2293 66.9213 37.0232C66.7803 36.8537 66.6007 36.7202 66.3975 36.6339C66.1942 36.5476 65.9732 36.5111 65.7529 36.5273C65.2763 36.5177 64.8049 36.6271 64.3817 36.8455C63.9584 37.0639 63.5967 37.3845 63.3296 37.7779L61.4905 44.1389H59.9543L62.4642 35.5139L63.8705 35.4276Z" fill="#D1D5DB"/>
<path d="M80.8767 35.276C81.5653 35.2541 82.242 35.4587 82.8023 35.8582C83.3108 36.2657 83.6748 36.8249 83.8409 37.4538C84.0151 38.1621 84.0151 38.9018 83.8409 39.6101V39.8041C83.6526 40.6279 83.2994 41.4053 82.8023 42.0898C82.327 42.7532 81.7053 43.2991 80.9849 43.6854C80.3233 44.0504 79.5773 44.2362 78.8213 44.2244C78.1297 44.2434 77.4517 44.0308 76.8956 43.6207C76.3749 43.2336 76.0073 42.6765 75.8571 42.0466C75.6739 41.3395 75.6739 40.5975 75.8571 39.8904C76.0195 39.0157 76.3661 38.1853 76.874 37.4538C77.3548 36.7704 77.9832 36.203 78.7131 35.7935C79.3767 35.436 80.1226 35.2576 80.8767 35.276ZM77.2418 39.9335C77.1727 40.2815 77.1364 40.6353 77.1336 40.9901C77.1116 41.5264 77.2633 42.0556 77.5663 42.4994C77.7322 42.6843 77.9358 42.8318 78.1633 42.9322C78.3909 43.0326 78.6373 43.0835 78.8862 43.0816C79.3947 43.1013 79.8982 42.974 80.3358 42.7151C80.8293 42.4412 81.2459 42.0482 81.5474 41.5723C81.8991 41.0536 82.1555 40.4769 82.3047 39.8688C82.3878 39.4565 82.4385 39.0384 82.4562 38.6182C82.4886 38.0707 82.3279 37.5291 82.0018 37.0873C81.8429 36.8926 81.6412 36.737 81.4124 36.6323C81.1836 36.5276 80.9337 36.4767 80.682 36.4835C80.2792 36.4704 79.8781 36.5424 79.5052 36.6947C79.1323 36.8471 78.796 37.0764 78.5183 37.3676C77.8816 38.0258 77.4398 38.8467 77.2418 39.7394V39.9335Z" fill="#D1D5DB"/>
<path d="M93.3609 39.826C93.1751 40.6802 92.8302 41.4921 92.344 42.2195C91.9268 42.8707 91.364 43.4169 90.6996 43.8151C90.1084 44.1531 89.4333 44.3175 88.7523 44.2895C88.2908 44.3224 87.8288 44.2319 87.4141 44.0271C86.9995 43.8224 86.6473 43.511 86.394 43.1251L85.9829 44.1385H84.5549L88.1249 31.7832H89.661L88.2547 36.3976C88.6224 36.0299 89.0614 35.7408 89.5451 35.548C90.0287 35.3552 90.5467 35.2628 91.0674 35.2763C91.4467 35.2581 91.8247 35.3331 92.1681 35.4948C92.5114 35.6565 92.8096 35.8999 93.0363 36.2035C93.5036 36.9327 93.6882 37.8066 93.5556 38.6616C93.5263 38.9951 93.4757 39.3264 93.4041 39.6535L93.3609 39.826ZM91.9978 38.9851C92.1187 38.3787 92.035 37.7495 91.7598 37.1954C91.6291 36.9779 91.4409 36.8004 91.2157 36.6825C90.9905 36.5646 90.7371 36.5108 90.4832 36.527C89.9743 36.5332 89.4743 36.662 89.026 36.9023C88.5777 37.1425 88.1944 37.4872 87.9085 37.907L86.805 41.6804C86.8916 42.0794 87.1174 42.4349 87.4423 42.6837C87.7672 42.9324 88.17 43.0583 88.5792 43.0388C89.1712 43.0634 89.7531 42.8803 90.2236 42.5213C90.7405 42.1394 91.1442 41.6253 91.392 41.0335C91.6911 40.3831 91.8952 39.6932 91.9978 38.9851Z" fill="#D1D5DB"/>
<path d="M95.8058 44.1381H94.2697L96.7795 35.5131H98.3157L95.8058 44.1381ZM98.3157 32.3434C98.4297 32.3311 98.5451 32.344 98.6536 32.3813C98.762 32.4185 98.8609 32.4792 98.9431 32.559C99.025 32.639 99.0856 32.738 99.1196 32.8472C99.1536 32.9563 99.1599 33.0722 99.1378 33.1843C99.1296 33.3052 99.0965 33.423 99.0407 33.5306C98.9849 33.6381 98.9075 33.7331 98.8133 33.8096C98.6226 33.964 98.3879 34.0546 98.1426 34.0684C98.0287 34.0779 97.9141 34.0636 97.806 34.0265C97.698 33.9894 97.5989 33.9302 97.5151 33.8528C97.4348 33.7717 97.3752 33.6726 97.3413 33.5638C97.3074 33.4549 97.3002 33.3396 97.3204 33.2275C97.3612 32.9906 97.4746 32.7722 97.6449 32.6021C97.7339 32.5168 97.839 32.45 97.9542 32.4056C98.0693 32.3611 98.1922 32.34 98.3157 32.3434Z" fill="#D1D5DB"/>
<path d="M99.9816 44.1385H98.467L102.015 31.7832H103.573L99.9816 44.1385Z" fill="#D1D5DB"/>
<path d="M106.473 44.2896C105.973 44.328 105.473 44.2416 105.015 44.0383C104.558 43.8349 104.159 43.5211 103.855 43.1252C103.562 42.6938 103.365 42.2057 103.275 41.6928C103.186 41.1799 103.206 40.654 103.335 40.1496V39.8046C103.524 38.9507 103.885 38.1438 104.395 37.4327C104.867 36.7737 105.481 36.2284 106.191 35.8371C106.855 35.4796 107.601 35.3012 108.355 35.3196C108.759 35.2946 109.164 35.3612 109.538 35.5143C109.913 35.6674 110.248 35.9031 110.519 36.2036C111.023 36.8693 111.248 37.7044 111.146 38.5324C111.123 38.8867 111.079 39.2395 111.016 39.5889L110.843 40.2574H104.936C104.834 40.5878 104.798 40.9353 104.832 41.2795C104.865 41.6238 104.967 41.958 105.131 42.2627C105.297 42.5356 105.532 42.7594 105.814 42.9111C106.095 43.0627 106.412 43.1366 106.732 43.1252C107.228 43.1173 107.717 43.0102 108.171 42.8101C108.624 42.6101 109.033 42.3213 109.372 41.9608L110.194 42.6724C109.743 43.1879 109.191 43.6061 108.571 43.9014C107.909 44.184 107.192 44.3165 106.473 44.2896ZM108.29 36.4839C107.658 36.4667 107.042 36.6815 106.559 37.0877C105.969 37.6072 105.51 38.257 105.218 38.9852H109.696V38.8558C109.786 38.5797 109.819 38.2885 109.793 37.9995C109.767 37.7105 109.682 37.4297 109.545 37.1739C109.412 36.9619 109.227 36.7871 109.007 36.6664C108.788 36.5456 108.541 36.4828 108.29 36.4839Z" fill="#D1D5DB"/>
</g>
</svg>
