<svg width="119" height="69" viewBox="0 0 119 69" fill="none" xmlns="http://www.w3.org/2000/svg">
<path d="M63.8056 38.5753L61.6853 39.7828L59.4784 38.5537V36.1172L61.6853 37.3462L63.8056 38.5753Z" fill="#D1D5DB"/>
<path d="M55.1295 38.5753L57.2715 39.7828L59.4784 38.5537V36.1172L57.2715 37.3462L55.1295 38.5753Z" fill="#D1D5DB"/>
<path d="M68.1762 36.1173L66.0125 37.3248L59.4784 33.6808V31.2227L66.0125 34.9098L68.1762 36.1173Z" fill="#D1D5DB"/>
<path d="M50.7589 36.1173L52.9225 37.3248L59.4784 33.6808V31.2227L52.9225 34.9098L50.7589 36.1173Z" fill="#D1D5DB"/>
<path d="M68.1762 26.2629L59.4784 21.3682L50.7589 26.2629L50.7805 26.2844H50.7589V36.1169L52.9225 37.3244V27.535L59.4784 23.8479L66.0125 27.535V37.3244L68.1762 36.1169V26.2844H68.1545L68.1762 26.2629Z" fill="#D1D5DB"/>
<path d="M63.8056 28.7424V28.6993L59.4784 26.2627L55.1295 28.6993V28.7424H55.1078V38.5749L57.2715 39.7824V29.9714L59.4784 28.7424L61.6636 29.9714V39.7824L63.8273 38.5749V28.7424H63.8056Z" fill="#D1D5DB"/>
<path d="M69.2364 47.6312L114.413 41.6153L114.608 40.5156L73.9531 42.37C72.9462 42.395 71.9758 42.7511 71.1931 43.3829C70.4105 44.0147 69.8594 44.8867 69.6258 45.8631L69.2364 47.4372" fill="#D1D5DB"/>
<path d="M110.367 23.417L108.723 31.1579L106.04 23.417H105.888H102.491H101.669L98.6402 37.6482H102.881L104.569 29.6486L107.251 37.6482H107.338H110.973H111.557L114.586 23.417H110.367Z" fill="#D1D5DB"/>
<path d="M100.306 23.417H96.3035H91.9762H87.9086L87.1513 27.0179H91.2189L88.9471 37.6482H93.2744L95.5246 27.0179H99.5489L100.306 23.417Z" fill="#D1D5DB"/>
<path d="M86.156 26.8239V26.2633C86.156 24.1071 83.9924 23.3955 82.4562 23.3955H74.5156L71.4 37.6483H80.0545C83.3433 37.6483 85.5285 35.6861 85.5285 33.3358V32.5811C85.4826 31.9292 85.2005 31.3162 84.7348 30.8561C84.2692 30.3959 83.6516 30.1201 82.9971 30.0799C83.4247 30.0928 83.8503 30.0165 84.2466 29.856C84.643 29.6955 85.0013 29.4542 85.2986 29.1477C85.596 28.8412 85.8259 28.4762 85.9735 28.076C86.1212 27.6759 86.1833 27.2494 86.156 26.8239ZM80.6171 26.8239C82.0884 26.8239 82.0884 28.9802 80.3791 28.9802H77.5447L78.0207 26.8239H80.6171ZM79.73 34.3061H76.4196L77.0038 31.6108H80.0545C81.7638 31.7833 81.4609 34.1768 79.73 34.263V34.3061Z" fill="#D1D5DB"/>
<path d="M69.2364 47.6312L114.413 41.6153L114.608 40.5156L73.9531 42.37C72.9462 42.395 71.9758 42.7511 71.1931 43.3829C70.4105 44.0147 69.8594 44.8867 69.6258 45.8631L69.2364 47.4372" fill="#D1D5DB"/>
<path d="M110.367 23.417L108.723 31.1579L106.04 23.417H105.888H102.491H101.669L98.6402 37.6482H102.881L104.569 29.6486L107.251 37.6482H107.338H110.973H111.557L114.586 23.417H110.367Z" fill="#D1D5DB"/>
<path d="M100.306 23.417H96.3035H91.9762H87.9086L87.1513 27.0179H91.2189L88.9471 37.6482H93.2744L95.5246 27.0179H99.5489L100.306 23.417Z" fill="#D1D5DB"/>
<path d="M86.156 26.8239V26.2633C86.156 24.1071 83.9924 23.3955 82.4562 23.3955H74.5156L71.4 37.6483H80.0545C83.3433 37.6483 85.5285 35.6861 85.5285 33.3358V32.5811C85.4826 31.9292 85.2005 31.3162 84.7348 30.8561C84.2692 30.3959 83.6516 30.1201 82.9971 30.0799C83.4247 30.0928 83.8503 30.0165 84.2466 29.856C84.643 29.6955 85.0013 29.4542 85.2986 29.1477C85.596 28.8412 85.8259 28.4762 85.9735 28.076C86.1212 27.6759 86.1833 27.2494 86.156 26.8239ZM80.6171 26.8239C82.0884 26.8239 82.0884 28.9802 80.3791 28.9802H77.5447L78.0207 26.8239H80.6171ZM79.73 34.3061H76.4196L77.0038 31.6108H80.0545C81.7638 31.7833 81.4609 34.1768 79.73 34.263V34.3061Z" fill="#D1D5DB"/>
<path d="M13.1549 31.0071C14.0631 31.1351 14.9214 31.4995 15.6431 32.0637C15.9124 32.309 16.1252 32.6094 16.2671 32.9444C16.4091 33.2793 16.4766 33.6409 16.4653 34.0043C16.4722 34.5332 16.3425 35.0549 16.0886 35.5194C15.8347 35.9839 15.4652 36.3754 15.0156 36.6565C13.8564 37.3731 12.505 37.7193 11.1427 37.6484H4.32727L4.50036 36.8506H4.76C5.17395 36.8925 5.59172 36.8256 5.97163 36.6565C6.23998 36.1834 6.41616 35.6639 6.49091 35.1256L8.22182 27.2552L8.43818 26.134C8.43818 25.789 8.02709 25.5949 7.22654 25.5518H7.05345L7.22654 24.754H12.6789C13.8608 24.6715 15.0458 24.8634 16.1407 25.3146C16.4804 25.4879 16.763 25.7548 16.9548 26.0835C17.1466 26.4123 17.2395 26.7891 17.2225 27.169C17.2168 27.6164 17.1154 28.0575 16.9251 28.4627C16.7348 28.868 16.46 29.2282 16.1191 29.5193C15.2771 30.2629 14.2556 30.7756 13.1549 31.0071ZM9.97436 31.4384L9.17382 35.104C9.08307 35.45 9.02512 35.8038 9.00072 36.1606C9.00072 36.5056 9.43345 36.6996 10.1258 36.6996C11.0221 36.7452 11.9028 36.4526 12.5924 35.8802C12.8856 35.6044 13.1165 35.2694 13.2694 34.8975C13.4224 34.5257 13.494 34.1256 13.4795 33.724C13.5029 33.404 13.4437 33.0833 13.3073 32.7926C13.1709 32.5019 12.962 32.2509 12.7005 32.0637C11.9715 31.6486 11.1371 31.4538 10.2989 31.5031L9.97436 31.4384ZM10.1691 30.5327H10.6235C11.5942 30.5871 12.5505 30.2797 13.3064 29.6702C13.6341 29.3884 13.8938 29.0365 14.0661 28.6408C14.2384 28.245 14.3189 27.8157 14.3016 27.3846C14.3458 27.1041 14.3151 26.8169 14.2125 26.5519C14.11 26.2869 13.9392 26.0536 13.7175 25.8752C13.0457 25.5504 12.2971 25.4161 11.5538 25.4871H11.2725L10.1691 30.5327Z" fill="#D1D5DB"/>
<path d="M22.5451 37.5191L23.2591 33.8319C22.8016 34.9076 22.115 35.8714 21.2469 36.6566C20.6543 37.2935 19.8438 37.6858 18.9751 37.7563C18.7351 37.7622 18.4969 37.7127 18.2792 37.6117C18.0615 37.5107 17.8702 37.3609 17.7202 37.1741C17.3985 36.74 17.2518 36.2014 17.3091 35.6647C17.3288 34.64 17.5725 33.6319 18.0231 32.7106C18.4385 31.7649 19.0336 30.9082 19.7757 30.1878C20.252 29.7297 20.8146 29.3701 21.431 29.1295C22.0474 28.889 22.7055 28.7723 23.3673 28.7863H24.3409H26.5046L25.2497 35.255V36.096V36.29C25.2497 36.5919 25.5742 36.786 26.2449 36.8291H26.3747L26.2233 37.5622L22.5451 37.5191ZM23.562 32.3441L24.038 29.9722C23.5876 29.6732 23.0641 29.5017 22.5235 29.4763C21.2469 29.4763 20.3598 30.8347 19.8189 33.53C19.6862 34.0891 19.6065 34.6595 19.5809 35.2335C19.5672 35.4359 19.6123 35.638 19.7107 35.8156C19.7633 35.8786 19.8296 35.9289 19.9046 35.9625C19.9796 35.9961 20.0613 36.0123 20.1435 36.0097C20.7926 36.0097 21.896 34.8669 23.4106 32.5813C23.4655 32.5051 23.5161 32.4259 23.562 32.3441Z" fill="#D1D5DB"/>
<path d="M27.2185 37.6478L28.4734 31.1791C28.4734 30.8125 28.6033 30.4675 28.6465 30.1657C28.6898 29.8638 28.322 29.6697 27.6729 29.6266H27.5431L27.6729 28.8935H31.2645L30.5289 32.5807C31.075 31.5115 31.8076 30.5477 32.6925 29.7344C33.2954 29.1214 34.1047 28.7526 34.9644 28.6994C35.1599 28.6962 35.3539 28.735 35.5331 28.8131C35.7123 28.8912 35.8725 29.0069 36.0029 29.1522C36.2823 29.4577 36.43 29.8604 36.414 30.2735C36.4016 30.643 36.3582 31.0108 36.2842 31.3732L35.5053 35.3407C35.3971 35.9875 35.3322 36.3325 35.3322 36.3757C35.3322 36.4188 35.6567 36.8716 36.3274 36.9147H36.4573L36.3058 37.6478H32.6493L33.8609 31.481C33.878 31.2729 33.878 31.0637 33.8609 30.8557C33.8609 30.5969 33.8609 30.446 33.558 30.446C32.9305 30.446 31.8054 31.6966 30.1611 34.1547L29.4687 37.6478H27.2185Z" fill="#D1D5DB"/>
<path d="M37.1496 37.6482L39.1618 27.3629L39.3349 26.3494C39.3349 26.0475 39.0104 25.8535 38.3613 25.8104H38.2098L38.3613 25.0557H41.9313L40.46 32.6025H40.7413C41.5586 32.3341 42.3002 31.8758 42.9049 31.2657C43.4254 30.8492 43.7598 30.2447 43.8353 29.5838C43.8323 29.3277 43.7491 29.0789 43.5973 28.8722H45.9124C45.9925 29.018 46.0369 29.1805 46.0422 29.3466C46.0422 30.3385 44.8738 31.5029 42.5371 32.6241C43.2665 33.972 44.0984 35.2623 45.0253 36.4838C45.1294 36.6312 45.2648 36.7539 45.4218 36.8434C45.5789 36.9328 45.7537 36.9867 45.934 37.0013H46.0638L45.934 37.7344H43.0564C42.1548 36.3066 41.3454 34.8229 40.6331 33.2925H40.3518L39.4647 37.7344L37.1496 37.6482Z" fill="#D1D5DB"/>
</svg>
