<svg width="119" height="69" viewBox="0 0 119 69" fill="none" xmlns="http://www.w3.org/2000/svg">
<path d="M89.2933 2.52247H29.7067C29.3924 2.52179 29.0812 2.58552 28.7926 2.7097C28.504 2.83389 28.2441 3.01587 28.029 3.24437C27.8139 3.47286 27.6483 3.74297 27.5424 4.03794C27.4365 4.33291 27.3925 4.64643 27.4133 4.95903L32.0435 64.3853C32.0435 64.9572 32.2714 65.5056 32.6772 65.91C33.0829 66.3144 33.6333 66.5415 34.2071 66.5415H84.4035C84.9773 66.5415 85.5276 66.3144 85.9334 65.91C86.3391 65.5056 86.5671 64.9572 86.5671 64.3853L91.5867 4.9806C91.6106 4.66626 91.569 4.35039 91.4645 4.05286C91.3599 3.75533 91.1948 3.48256 90.9794 3.2517C90.764 3.02084 90.503 2.83688 90.2128 2.71139C89.9227 2.58589 89.6096 2.52157 89.2933 2.52247Z" fill="white"/>
<path d="M43.3809 4.16114V47.8252H32.4545L29.1009 5.32551C29.0889 5.17685 29.108 5.02733 29.157 4.8864C29.206 4.74547 29.2838 4.61621 29.3855 4.50677C29.4871 4.39734 29.6105 4.31012 29.7477 4.25062C29.885 4.19113 30.0331 4.16066 30.1827 4.16114H43.3809Z" fill="#D1D5DB"/>
<path d="M75.7273 4.16114V47.8252H86.5454L89.8991 5.32551C89.9111 5.17685 89.892 5.02733 89.843 4.8864C89.794 4.74547 89.7162 4.61621 89.6145 4.50677C89.5129 4.39734 89.3895 4.31012 89.2523 4.25062C89.115 4.19113 88.9669 4.16066 88.8173 4.16114H75.7273Z" fill="#D1D5DB"/>
<path d="M78.8213 51.5344C77.1816 51.0421 75.4543 50.9097 73.7584 51.1462C71.9086 51.2219 70.1565 51.9939 68.8555 53.3065C67.5545 54.6191 66.8014 56.3745 66.7482 58.2188C66.7482 58.2188 66.64 63.0919 73.2391 63.2644C74.701 63.354 76.1672 63.1786 77.5664 62.7469C77.6348 62.7239 77.6964 62.6843 77.7455 62.6316C77.7946 62.5788 77.8297 62.5147 77.8476 62.445L78.0856 60.9141C78.0856 60.7416 77.9558 60.5906 77.8044 60.6553C76.5338 61.0644 75.1826 61.1606 73.8665 60.9356C73.4319 60.8783 73.0135 60.7338 72.6364 60.5109C72.2594 60.288 71.9316 59.9913 71.6728 59.6387C71.4139 59.286 71.2295 58.8848 71.1306 58.4591C71.0316 58.0335 71.0202 57.5923 71.0971 57.1622C71.0913 56.6113 71.1959 56.0647 71.4048 55.5546C71.6137 55.0445 71.9227 54.581 72.3136 54.1914C72.7045 53.8018 73.1696 53.4939 73.6814 53.2857C74.1933 53.0776 74.7417 52.9733 75.2945 52.9791C76.8307 52.9791 76.9822 54.1866 76.9822 54.1866V54.6609C76.9822 54.741 77.0141 54.8178 77.0709 54.8744C77.1277 54.931 77.2048 54.9628 77.2851 54.9628H78.1505C78.2218 54.9691 78.2929 54.9481 78.3491 54.904C78.4054 54.8599 78.4427 54.7961 78.4535 54.7256L79.1242 51.9441C79.1317 51.8509 79.1052 51.7581 79.0495 51.6828C78.9939 51.6076 78.9128 51.5549 78.8213 51.5344Z" fill="#D1D5DB"/>
<path d="M66.9213 54.5317L67.592 51.6208C67.6058 51.5747 67.6084 51.526 67.5995 51.4787C67.5906 51.4314 67.5705 51.3869 67.5409 51.3489C67.5113 51.311 67.4729 51.2806 67.4291 51.2604C67.3853 51.2402 67.3373 51.2307 67.2891 51.2327H57.1849C57.1543 51.219 57.1211 51.2119 57.0875 51.2119C57.054 51.2119 57.0208 51.219 56.9902 51.2327C56.8066 51.5611 56.7238 51.9359 56.7522 52.3108C56.7304 52.3663 56.7304 52.4278 56.7522 52.4833C56.8318 52.5562 56.9285 52.6081 57.0334 52.6342C57.1981 52.6997 57.3363 52.8178 57.4264 52.97C57.5165 53.1222 57.5533 53.2999 57.5311 53.4752C57.5311 53.8202 55.8867 61.0652 55.5189 62.7255C55.5088 62.7644 55.5079 62.8051 55.5164 62.8444C55.5248 62.8837 55.5423 62.9206 55.5675 62.9519C55.5927 62.9833 55.6249 63.0084 55.6615 63.0253C55.6982 63.0421 55.7382 63.0502 55.7785 63.0489H60.2789C60.3491 63.0529 60.4188 63.034 60.4773 62.9951C60.5358 62.9562 60.5801 62.8994 60.6034 62.8333C60.7126 62.5548 60.7923 62.2657 60.8414 61.9708C60.8661 61.9282 60.8791 61.8798 60.8791 61.8306C60.8791 61.7814 60.8661 61.7331 60.8414 61.6905L60.452 61.4102C60.3213 61.3126 60.2226 61.1785 60.1687 61.0249C60.1147 60.8713 60.1079 60.7052 60.1491 60.5477L60.6034 58.3914H64.4331C64.4977 58.3932 64.5609 58.3727 64.6121 58.3334C64.6634 58.2941 64.6995 58.2385 64.7144 58.1758L65.1471 56.5586C65.1564 56.5071 65.1545 56.4542 65.1416 56.4035C65.1287 56.3528 65.1051 56.3054 65.0723 56.2646C65.0395 56.2237 64.9983 56.1904 64.9515 56.1667C64.9047 56.143 64.8533 56.1296 64.8009 56.1274H61.0578L61.7502 53.0008H64.5413C64.7633 53.0063 64.9748 53.0966 65.1319 53.2532C65.2889 53.4097 65.3796 53.6204 65.3851 53.8417V54.2514C65.3851 54.3315 65.417 54.4083 65.4738 54.4649C65.5306 54.5215 65.6077 54.5533 65.688 54.5533H66.64C66.6851 54.5727 66.7343 54.5809 66.7833 54.5771C66.8323 54.5734 66.8797 54.5578 66.9213 54.5317Z" fill="#D1D5DB"/>
<path d="M54.502 61.7333H54.264C54.1448 61.7376 54.0263 61.7145 53.9175 61.6659C53.8088 61.6173 53.7126 61.5445 53.6365 61.453C52.6196 60.2887 51.3214 58.4774 49.98 56.5799L54.3073 53.0005C54.7221 52.7753 55.1784 52.6359 55.6487 52.5908C55.6935 52.5817 55.7352 52.561 55.7694 52.5307C55.8036 52.5004 55.8291 52.4616 55.8434 52.4183L56.0598 51.6637C56.0728 51.6135 56.0743 51.5611 56.0643 51.5103C56.0542 51.4595 56.0328 51.4117 56.0016 51.3702C55.9704 51.3288 55.9303 51.2949 55.8842 51.2711C55.8381 51.2472 55.7872 51.234 55.7353 51.2324H50.8022C50.7791 51.2192 50.753 51.2122 50.7264 51.2122C50.6999 51.2122 50.6737 51.2192 50.6507 51.2324C50.4676 51.5695 50.378 51.949 50.3911 52.3321L50.7156 52.5908C50.7469 52.6102 50.7728 52.6372 50.7907 52.6692C50.8086 52.7013 50.818 52.7374 50.818 52.7741C50.818 52.8108 50.8086 52.8469 50.7907 52.879C50.7728 52.9111 50.7469 52.9381 50.7156 52.9574L46.3884 56.4937L47.0807 53.3671C47.1068 53.1499 47.1999 52.9461 47.3472 52.7839C47.4945 52.6217 47.6886 52.509 47.9029 52.4615C47.9549 52.4479 48.0024 52.4208 48.0404 52.3829C48.0784 52.345 48.1056 52.2977 48.1193 52.2458L48.314 51.4265C48.3281 51.3833 48.3314 51.3374 48.3237 51.2926C48.316 51.2479 48.2976 51.2057 48.2699 51.1696C48.2422 51.1335 48.2062 51.1047 48.1649 51.0856C48.1236 51.0665 48.0782 51.0577 48.0327 51.0599H42.6669C42.5992 51.0591 42.5335 51.0826 42.4819 51.1262C42.4302 51.1698 42.396 51.2305 42.3856 51.2971L42.2558 52.1596C42.2419 52.2223 42.2519 52.288 42.2839 52.3438C42.3159 52.3996 42.3676 52.4416 42.4289 52.4615C42.6628 52.5407 42.8588 52.7037 42.9787 52.9189C43.0987 53.1341 43.1341 53.3861 43.078 53.6258L41.4985 60.6337C41.3824 60.8778 41.2136 61.0933 41.0041 61.2647C40.7946 61.4362 40.5497 61.5594 40.2869 61.6255C40.2538 61.6349 40.2231 61.6513 40.1969 61.6736C40.1708 61.696 40.1498 61.7237 40.1354 61.7549L39.8758 62.5312C39.8588 62.5826 39.8542 62.6374 39.8624 62.691C39.8706 62.7445 39.8913 62.7954 39.9229 62.8395C39.9546 62.8836 39.9961 62.9197 40.0443 62.9448C40.0925 62.9699 40.146 62.9833 40.2004 62.984H45.9773C46.0254 62.9843 46.0719 62.9668 46.1078 62.935C46.1438 62.9031 46.1666 62.8591 46.172 62.8115L46.3884 61.8196C46.4129 61.789 46.4263 61.751 46.4263 61.7118C46.4263 61.6726 46.4129 61.6346 46.3884 61.604L45.8691 61.2374C45.7927 61.1818 45.7337 61.1055 45.6993 61.0177C45.6648 60.9299 45.6561 60.834 45.6744 60.7415L46.3451 57.7227L47.6 60.1808L48.3356 61.3452C48.6845 61.9005 49.1695 62.3581 49.7448 62.6749C50.3202 62.9918 50.967 63.1575 51.6244 63.1565H54.4154C54.5053 63.1587 54.5933 63.1299 54.6643 63.0748C54.7352 63.0198 54.7849 62.942 54.8049 62.8546L54.9563 62.2293C54.9769 62.1644 54.9799 62.0953 54.9652 62.0289C54.9505 61.9625 54.9185 61.9011 54.8725 61.8509C54.8265 61.8006 54.7681 61.7633 54.703 61.7427C54.638 61.7221 54.5687 61.7189 54.502 61.7333Z" fill="#D1D5DB"/>
<path d="M70.448 19.4061C70.448 19.4061 71.0754 17.4008 71.1836 16.9696C71.2918 16.5383 71.4649 15.8914 71.1836 15.6543C70.9575 15.4961 70.8023 15.2563 70.7509 14.9858C70.6629 13.7903 70.3778 12.6174 69.9071 11.5143C69.1529 9.58222 67.8558 7.90784 66.1712 6.69171C64.4866 5.47557 62.4859 4.76926 60.4087 4.65738C58.0778 4.57277 55.7591 5.03049 53.6365 5.99425C52.6413 6.36082 52.7278 6.51175 52.6196 6.85675C52.5114 7.20175 52.6196 7.22332 51.9922 7.78394C51.3716 8.31663 50.5826 8.61437 49.7636 8.62488C49.3309 8.62488 49.2876 8.62488 49.2876 8.62488C49.2876 8.62488 49.9584 9.83238 50.7156 10.048C50.2627 10.1961 49.7835 10.2475 49.3093 10.1989C49.0663 10.192 48.8265 10.2556 48.6191 10.3819C48.4117 10.5082 48.2456 10.6919 48.1409 10.9105C47.9894 11.2555 48.1409 11.4496 48.3789 11.6868C48.6089 12.0498 48.7702 12.4517 48.8549 12.8727C48.8549 13.1746 48.5736 13.3686 48.2923 13.7136C48.0111 14.0586 47.6865 14.1018 47.6216 14.6839C47.6053 15.1588 47.6712 15.6329 47.8164 16.0855L48.6385 19.4061C47.5351 19.5355 47.8813 21.1743 47.9678 21.5624C48.0888 22.2967 48.2771 23.0185 48.5304 23.7186C48.7918 24.5092 49.0014 25.3159 49.1578 26.1336C49.2423 26.4785 49.3508 26.8171 49.4824 27.1471C49.5497 27.4347 49.7223 27.6869 49.9664 27.8544C50.2105 28.0219 50.5085 28.0926 50.8022 28.0527C51.1051 28.0527 50.9753 28.0527 51.1483 29.3249C51.3032 30.0631 51.5278 30.785 51.8191 31.4811C51.8532 31.8083 51.911 32.1326 51.9922 32.4514C53.0158 34.6782 54.7097 36.5321 56.8387 37.7558H54.7833C54.6579 37.765 54.5397 37.8173 54.4489 37.9039C54.3581 37.9905 54.3004 38.1058 54.2856 38.2302C54.247 38.9053 54.247 39.582 54.2856 40.2571C54.2856 40.2571 54.2856 40.6883 54.9563 40.6883H58.4831C58.4435 40.8638 58.3929 41.0366 58.3316 41.2058C58.3316 41.4861 57.5311 43.168 56.7089 45.1086C56.2545 46.2083 55.692 47.0493 55.6054 47.4158C55.5989 47.4356 55.5965 47.4566 55.5985 47.4773C55.6004 47.4981 55.6067 47.5182 55.6169 47.5365C55.627 47.5547 55.6409 47.5706 55.6575 47.5833C55.6742 47.5959 55.6933 47.605 55.7136 47.6099C55.8283 47.628 55.9451 47.628 56.0598 47.6099C56.5142 47.6099 56.7522 47.9118 57.1416 48.0843C57.5311 48.2568 57.4445 48.2783 57.7042 47.7177C58.3827 46.2536 58.968 44.7485 59.4567 43.2111C59.5625 45.028 59.5625 46.8495 59.4567 48.6664C59.4567 48.6664 59.4567 48.9036 59.9976 48.7743C60.3703 48.6354 60.7701 48.5837 61.166 48.6233C61.4905 48.6233 61.5122 48.1058 61.5338 47.7608C61.6646 45.337 61.3793 42.9086 60.69 40.5805C61.5105 40.5068 62.336 40.5068 63.1565 40.5805C64.1734 40.753 64.4331 40.5805 64.4763 40.2786C64.5196 39.9768 64.4763 38.1224 64.4763 38.1224C64.4763 38.1224 64.4764 37.6049 63.8056 37.5833C63.1349 37.5618 62.6156 37.5833 62.1396 37.5833C63.6897 36.6209 65.0771 35.4201 66.2505 34.0255C67.3357 32.3107 67.9408 30.3378 68.0031 28.3114C68.0031 27.9233 68.2411 27.9449 68.2411 27.9449C68.4751 27.9566 68.708 27.907 68.9168 27.8011C69.1256 27.6951 69.3029 27.5366 69.4311 27.3411C70.2367 25.249 70.831 23.082 71.2053 20.8724C71.5082 19.4061 70.448 19.4061 70.448 19.4061ZM50.2829 25.0771C49.742 25.0771 49.5256 23.6755 49.3093 22.9208C49.0799 22.2925 48.9699 21.6271 48.9847 20.9586C48.986 20.8648 49.0129 20.7732 49.0624 20.6934C49.112 20.6136 49.1823 20.5488 49.266 20.5058C49.3399 20.4576 49.4264 20.4319 49.5148 20.4319C49.6032 20.4319 49.6897 20.4576 49.7636 20.5058C49.8765 20.5711 49.967 20.6688 50.0233 20.7861C50.1137 21.0148 50.1137 21.2691 50.0233 21.4977C49.9493 21.8169 49.9493 22.1488 50.0233 22.468C50.0233 22.8561 50.2829 24.0421 50.3694 24.6243C50.456 25.2064 50.2829 25.0771 50.2829 25.0771ZM50.4343 17.3577C50.4343 17.8752 50.4343 18.2202 50.4343 18.4574C50.4089 18.5851 50.3652 18.7086 50.3045 18.8239C50.2641 18.9066 50.1982 18.9742 50.1164 19.0169C50.0347 19.0595 49.9414 19.075 49.8502 19.0611C49.8502 19.0611 49.3958 17.4655 49.1145 16.0855C49.0476 15.6114 49.0973 15.1281 49.2594 14.6773C49.4214 14.2266 49.691 13.8219 50.0449 13.498C50.0449 13.498 50.3262 12.9374 49.6771 11.7946C49.6771 11.7946 49.4607 11.4496 49.9151 11.4711C50.77 11.4086 51.6097 11.2121 52.4033 10.8889C53.3553 10.5224 53.0307 10.4793 53.9394 10.2421C54.8482 10.0049 55.2376 10.0911 55.4324 10.2421C55.6271 10.393 55.1944 10.3714 54.7184 10.6086C53.8308 11.013 53.1064 11.7045 52.6629 12.5708C52.0138 13.7999 51.7109 13.6274 51.3431 14.2096C50.8381 15.1903 50.5295 16.2595 50.4343 17.3577ZM51.7758 19.4061C51.7662 19.4413 51.7493 19.474 51.7261 19.5021C51.7029 19.5303 51.6741 19.5532 51.6414 19.5695C51.6087 19.5858 51.573 19.595 51.5365 19.5966C51.5 19.5982 51.4636 19.592 51.4296 19.5786L50.9969 19.4061C50.979 19.3943 50.9644 19.3783 50.9543 19.3595C50.9441 19.3407 50.9388 19.3197 50.9388 19.2983C50.9388 19.277 50.9441 19.2559 50.9543 19.2371C50.9644 19.2183 50.979 19.2023 50.9969 19.1905C51.1051 19.1905 51.2565 19.1905 51.408 19.1905C51.5594 19.1905 51.6243 19.0611 51.7325 19.1905C51.8407 19.3199 51.9273 19.2552 51.7758 19.4061ZM51.7758 18.5652H51.408C51.3783 18.2623 51.4306 17.957 51.5594 17.6811C51.8191 17.2068 52.2518 17.2068 52.4249 17.0558C52.5471 16.9004 52.6222 16.7133 52.6413 16.5168C53.0956 13.0236 54.5236 11.7946 55.5189 11.3418C56.2899 11.1242 57.1063 11.1242 57.8773 11.3418H58.1369C58.6994 11.3418 59.2403 11.8161 59.4567 11.8161C59.6731 11.8161 59.9976 11.428 60.2356 11.2124C60.2782 11.1649 60.3017 11.1035 60.3017 11.0399C60.3017 10.9762 60.2782 10.9148 60.2356 10.8674C59.3224 9.79044 58.086 9.03452 56.7089 8.71113C55.1805 8.48269 53.6188 8.74712 52.2518 9.46582C52.3182 9.38987 52.3696 9.30207 52.4033 9.20707C53.0011 8.5426 53.7403 8.01956 54.5669 7.67613C55.4973 7.26644 55.5838 7.288 55.5622 7.07238C55.5405 6.85675 54.978 7.07238 54.7184 6.92144C54.4587 6.7705 54.5885 6.79207 54.7184 6.68425C56.2094 5.93297 57.8766 5.59769 59.5433 5.71394C62.4437 5.84361 65.1811 7.08782 67.1809 9.1855C68.6432 10.9033 69.4142 13.1007 69.3445 15.3524C69.4071 16.2191 69.3043 17.0898 69.0416 17.9183C68.8198 17.4954 68.6525 17.0462 68.544 16.5814C68.3709 15.8268 67.4838 13.3039 66.9429 13.1099V15.2661C67.7395 16.2102 68.1491 17.4193 68.0896 18.6514C67.7266 18.631 67.3653 18.5878 67.0078 18.5221C65.2694 18.4057 63.5239 18.4491 61.7934 18.6514C61.1946 18.8428 60.6471 19.1672 60.1923 19.6002C59.9543 19.6002 59.7164 19.6002 59.3918 19.6002C59.1707 19.5965 58.9507 19.633 58.7427 19.708C58.2451 19.708 58.2234 19.4924 57.5527 19.018C57.0086 18.702 56.3863 18.5451 55.7569 18.5652H51.7758ZM67.9814 19.4061C67.9814 19.5355 67.7651 19.5571 67.4622 19.6002C67.1593 19.6433 67.0727 19.5355 67.0727 19.4061C67.066 19.3635 67.0757 19.3199 67.0997 19.2839C67.1238 19.248 67.1604 19.2223 67.2025 19.2121C67.3973 19.1043 68.0031 19.1905 67.9814 19.4061ZM64.9091 19.8158C64.8915 19.7965 64.8803 19.7724 64.8767 19.7465C64.8732 19.7207 64.8775 19.6945 64.8892 19.6712C64.9009 19.6479 64.9194 19.6286 64.9422 19.616C64.9651 19.6033 64.9912 19.5978 65.0173 19.6002C65.4478 19.506 65.8982 19.5834 66.2722 19.8158C66.4453 19.9236 66.5318 20.8724 65.7962 20.5274C65.4456 20.3675 65.1407 20.1229 64.9091 19.8158ZM65.6447 21.1311C65.2553 21.3683 64.8009 20.8939 64.3465 20.6352C64.1536 20.5096 63.9348 20.4289 63.7063 20.3991C63.4779 20.3692 63.2456 20.391 63.0267 20.4627C62.594 20.4627 62.6589 20.3333 62.6589 20.3333C62.8153 20.1789 63.0012 20.0573 63.2056 19.9758C63.41 19.8943 63.6288 19.8546 63.8489 19.8589C64.4547 19.8589 65.1471 20.7646 65.6447 21.0233C65.6014 21.0449 65.5582 21.1311 65.5582 21.1311H65.6447ZM57.358 25.2711C57.358 25.2711 57.358 25.7671 57.1416 25.6593C56.9913 25.6031 56.8614 25.5031 56.7688 25.3723C56.6762 25.2416 56.6251 25.0861 56.6224 24.9261C56.6224 24.5596 56.6224 24.193 57.0334 24.1283C57.4445 24.0636 57.358 24.3008 57.358 24.3008C57.2449 24.6112 57.2151 24.9457 57.2714 25.2711H57.358ZM53.3769 20.6999C53.6451 20.5007 53.9271 20.3206 54.2207 20.1608C54.579 19.9281 54.9861 19.7806 55.4107 19.7296C55.596 19.6998 55.7859 19.7324 55.9504 19.8222C56.115 19.912 56.2449 20.0539 56.3194 20.2255C56.3194 20.4196 56.3194 20.398 55.6703 20.3549C55.0909 20.3724 54.5252 20.5356 54.026 20.8293C53.5283 21.0233 53.3769 20.9586 53.3336 20.8293C53.2903 20.6999 53.3336 20.7214 53.3769 20.6999ZM52.1653 20.6999C51.9273 20.6999 51.9273 20.2902 51.9273 20.2902C52.0397 20.0727 52.2158 19.8945 52.4321 19.779C52.6485 19.6634 52.895 19.6161 53.1389 19.6433C53.4202 19.6433 53.9178 19.6433 53.3336 19.9883C52.9816 20.2706 52.5873 20.4961 52.1653 20.6568V20.6999ZM51.9273 23.7186C52.0354 23.5461 52.2951 23.7186 52.5763 23.7186C52.7763 23.8147 52.9869 23.8871 53.2038 23.9343C53.3985 23.9343 53.4851 23.8049 53.5067 23.6324C53.5283 23.4599 53.5067 23.3089 53.1173 23.158C52.7947 22.9915 52.5194 22.7468 52.3167 22.4464C52.26 22.3639 52.2296 22.2662 52.2296 22.1661C52.2296 22.0661 52.26 21.9684 52.3167 21.8858C52.4682 21.7564 52.5331 21.8858 52.836 22.1014C53.1389 22.3171 53.3553 22.4033 53.6582 22.1014C53.8878 21.837 54.1879 21.6426 54.5236 21.5408C54.9071 21.445 55.3085 21.445 55.692 21.5408C56.0413 21.616 56.4028 21.616 56.7522 21.5408C56.9469 21.5408 57.1416 21.433 57.1633 21.5408C57.1849 21.6486 57.0334 21.7133 56.9685 21.9074C56.9036 22.1014 57.0983 22.2739 57.12 22.3818C57.1416 22.4896 57.2282 22.7699 56.6656 23.1364C56.2136 23.3792 55.7078 23.5053 55.1944 23.503C54.9347 23.503 55.0213 23.8049 55.0213 23.9774C55.02 24.0166 55.0322 24.055 55.0558 24.0863C55.0794 24.1177 55.113 24.1401 55.1511 24.1499H56.0814V24.2793C55.9333 24.4534 55.8295 24.6605 55.7785 24.883C55.756 25.0171 55.6872 25.1392 55.5838 25.228C55.0412 25.4156 54.5305 25.6847 54.0693 26.0258L53.788 26.1552H53.6582C52.2734 26.5433 51.7974 23.7186 51.9273 23.7186ZM56.2545 34.1333C55.9783 34.2085 55.6869 34.2085 55.4107 34.1333C54.6146 33.6753 53.9251 33.0541 53.388 32.3106C52.8509 31.5672 52.4784 30.7185 52.2951 29.8208C52.2108 29.4809 52.2108 29.1257 52.2951 28.7858C52.3249 28.583 52.409 28.3919 52.5384 28.2326C52.6678 28.0732 52.8379 27.9515 53.0307 27.8802C53.3336 27.7508 53.7231 27.8802 53.7231 28.3114C53.6872 28.6699 53.6872 29.0311 53.7231 29.3896C54.026 31.5458 54.74 32.9043 55.0213 32.1064C55.3025 31.3086 55.5189 31.3518 55.5189 31.3518C56.0598 33.0768 56.2545 33.7021 56.3194 33.9608C56.3022 33.9864 56.2802 34.0083 56.2545 34.0255V34.1333ZM54.9131 28.0311C54.8993 28.019 54.8882 28.0041 54.8806 27.9873C54.873 27.9706 54.8691 27.9525 54.8691 27.9341C54.8691 27.9157 54.873 27.8976 54.8806 27.8809C54.8882 27.8641 54.8993 27.8492 54.9131 27.8371C55.3025 27.5999 56.5574 26.8452 56.9253 26.6943C57.0521 26.6281 57.1932 26.5936 57.3364 26.5936C57.4795 26.5936 57.6206 26.6281 57.7474 26.6943C58.2612 27.0275 58.847 27.2344 59.4567 27.298C59.6952 27.3082 59.9328 27.2628 60.1506 27.1655C60.3685 27.0681 60.5605 26.9216 60.7116 26.7374C60.9929 26.4786 60.9713 26.7374 61.3607 26.3924C61.7502 26.0474 61.8367 26.1983 61.8367 26.1983C61.8367 26.1983 62.2262 26.3924 62.8969 27.2118C63.5676 28.0311 64.1518 27.6646 63.9354 28.0311C63.7191 28.3977 63.1998 28.4408 61.7718 28.4408C60.9648 28.3447 60.1633 28.208 59.3702 28.0311C58.5796 28.2708 57.7683 28.4369 56.9469 28.5271C56.592 28.5924 56.2272 28.5819 55.8766 28.4964C55.5261 28.4109 55.1976 28.2524 54.9131 28.0311ZM61.5122 29.1955C61.5122 29.1955 61.3607 29.368 60.8198 29.4758C60.0395 29.5934 59.2505 29.6439 58.4614 29.6268C58.269 29.5663 58.0969 29.4544 57.9638 29.3033C57.9638 29.3033 57.9638 29.3033 57.9638 29.1739C57.9638 29.0446 58.2451 29.1739 58.7211 29.0661C59.655 29.0185 60.5913 29.0764 61.5122 29.2386V29.1955ZM70.1667 21.2821C69.8482 22.9927 69.385 24.6734 68.782 26.3061C68.782 26.3061 68.6522 26.7158 68.306 26.7158C67.9598 26.7158 67.7651 26.3924 67.3973 26.9746C67.0294 27.5568 67.0727 27.8155 67.0727 27.8155C67.0502 29.5943 66.5737 31.3381 65.688 32.8827C64.944 34.1637 63.7236 35.1011 62.2911 35.4918C62.2052 35.4893 62.1212 35.4665 62.046 35.4252C61.9707 35.384 61.9064 35.3255 61.8584 35.2546C61.6204 34.9743 61.5122 34.9958 61.5122 35.3624C61.549 35.7447 61.4658 36.1289 61.2742 36.4621C60.7619 36.9511 60.427 37.5957 60.3222 38.2949C60.29 38.3252 60.2474 38.3421 60.2032 38.3421C60.1589 38.3421 60.1163 38.3252 60.0842 38.2949C59.2253 37.7113 58.5322 36.9166 58.072 35.9877C57.871 35.5572 57.796 35.0788 57.8556 34.6077C57.9042 34.2916 57.984 33.981 58.0936 33.6805C58.2233 33.2915 58.2819 32.8826 58.2667 32.473C58.2667 32.3221 58.1369 31.6968 58.2667 31.7183C58.3965 31.7399 58.6778 32.3652 58.8509 32.4083C59.024 32.4514 58.9807 32.0849 58.9807 31.6536C58.9866 31.5658 58.975 31.4777 58.9466 31.3944C58.9182 31.311 58.8736 31.2341 58.8153 31.168C58.757 31.1018 58.6862 31.0479 58.6069 31.0091C58.5276 30.9703 58.4414 30.9476 58.3533 30.9421C58.0071 30.9421 58.0936 30.7049 58.0936 30.7049C58.0936 30.7049 58.31 30.2736 59.3702 30.3599C60.0229 30.457 60.6864 30.457 61.3391 30.3599C61.7934 30.3599 62.4642 29.9502 62.8753 30.0364C63.2863 30.1227 63.5244 30.3814 63.4378 31.1577C63.3513 31.9339 63.6974 32.0202 63.6974 32.0202C64.2384 31.8477 64.2167 30.403 64.5845 30.0364C64.8693 29.7264 65.0834 29.3586 65.212 28.9583C65.245 28.4485 65.245 27.9372 65.212 27.4274C65.212 27.1686 65.212 27.0177 64.6278 26.6511C64.0449 26.2513 63.5574 25.7287 63.1998 25.1202C62.8714 24.6451 62.3908 24.2954 61.8367 24.1283C61.4473 23.9989 61.4256 24.3871 61.5554 24.5596C61.6016 24.7582 61.6016 24.9647 61.5554 25.1633C61.3029 25.4205 60.9992 25.6224 60.664 25.7561C60.3287 25.8898 59.9691 25.9523 59.6082 25.9396C59.2921 25.9396 58.9805 25.8654 58.6986 25.7231C58.4167 25.5807 58.1723 25.3742 57.9854 25.1202C57.7939 24.8834 57.701 24.5824 57.7258 24.2793C57.7258 23.5893 58.2018 23.1796 58.31 22.5758C58.4182 21.9721 58.548 21.088 58.548 21.088C58.548 21.088 58.548 20.4196 59.1105 20.398C59.2754 20.3976 59.4343 20.4598 59.5549 20.572C59.6754 20.6841 59.7486 20.8378 59.7596 21.0018C59.7596 21.1743 60.1058 22.1877 60.5385 22.0799C60.6705 22.0489 60.786 21.9697 60.8621 21.8578C60.9383 21.746 60.9695 21.6098 60.9496 21.4761C60.9496 21.3468 60.69 21.1311 60.8414 21.0664C60.9929 21.0018 61.2309 21.1958 61.6853 21.3468C62.3303 21.5178 63.0091 21.5178 63.6542 21.3468C63.8368 21.2682 64.0407 21.2532 64.2329 21.304C64.4252 21.3549 64.5948 21.4686 64.7143 21.6271C64.7143 21.9074 65.0389 21.9074 65.2769 21.9289C65.5149 21.9505 65.8178 21.9289 65.688 22.3602C65.5966 22.578 65.4516 22.7693 65.2662 22.9163C65.0809 23.0633 64.8613 23.1613 64.6278 23.2011C64.2167 23.2011 63.9354 23.3736 63.8922 23.6324C63.8489 23.8911 64.3033 24.0636 64.8225 23.9558C65.0865 23.9078 65.3378 23.8065 65.561 23.6582C65.7842 23.5099 65.9747 23.3176 66.1207 23.0933C66.5665 22.4067 66.8887 21.6478 67.0727 20.8508C67.0892 20.6163 67.1944 20.3968 67.3671 20.2366C67.5399 20.0765 67.7672 19.9877 68.0031 19.9883C68.3276 19.9883 68.3925 20.1608 68.3925 20.2255C68.3925 20.6568 68.3925 22.3818 68.3925 22.3818C68.3925 22.3818 68.3925 22.6405 68.7604 22.3818C68.9215 22.2104 69.0732 22.0305 69.2147 21.8427C69.1185 21.519 69.1185 21.1745 69.2147 20.8508C69.3662 20.4411 69.5393 20.4411 69.7124 20.4196C69.8854 20.398 70.3614 20.5058 70.1883 21.3252L70.1667 21.2821Z" fill="#D1D5DB"/>
</svg>
