<svg width="109" height="16" viewBox="0 0 109 16" fill="none" xmlns="http://www.w3.org/2000/svg">
<path d="M9.19284 0.42419C9.12175 0.28033 9.00121 0.15626 8.84203 0.0786216C8.45954 -0.107102 7.99592 0.0474139 7.80738 0.42419L5.59899 4.83056L0.660634 5.54225C0.499911 5.56432 0.343052 5.63892 0.219419 5.76375C-0.0788449 6.06517 -0.0718905 6.54699 0.233328 6.84003L3.80554 10.2675L2.96252 15.1101C2.9347 15.2676 2.95788 15.4381 3.04056 15.5926C3.23915 15.9649 3.70664 16.108 4.08449 15.9123L8.49972 13.625L12.9157 15.9123C13.0595 15.9877 13.231 16.0181 13.4056 15.9892C13.826 15.9184 14.1088 15.5249 14.0369 15.1101L13.1939 10.2675L16.7661 6.84003C16.8828 6.7289 16.9662 6.57819 16.9917 6.40465C17.0536 5.98905 16.7615 5.60238 16.3388 5.54149L11.4012 4.83056L9.19284 0.42419Z" fill="#ECC92A"/>
<path d="M9.19284 0.42419C9.12175 0.28033 9.00121 0.15626 8.84203 0.0786216C8.45954 -0.107102 7.99592 0.0474139 7.80738 0.42419L5.59899 4.83056L0.660634 5.54225C0.499911 5.56432 0.343052 5.63892 0.219419 5.76375C-0.0788449 6.06517 -0.0718905 6.54699 0.233328 6.84003L3.80554 10.2675L2.96252 15.1101C2.9347 15.2676 2.95788 15.4381 3.04056 15.5926C3.23915 15.9649 3.70664 16.108 4.08449 15.9123L8.49972 13.625L12.9157 15.9123C13.0595 15.9877 13.231 16.0181 13.4056 15.9892C13.826 15.9184 14.1088 15.5249 14.0369 15.1101L13.1939 10.2675L16.7661 6.84003C16.8828 6.7289 16.9662 6.57819 16.9917 6.40465C17.0536 5.98905 16.7615 5.60238 16.3388 5.54149L11.4012 4.83056L9.19284 0.42419Z" fill="#ECC92A"/>
<path d="M32.1928 0.42419C32.1218 0.28033 32.0012 0.15626 31.842 0.0786216C31.4595 -0.107102 30.9959 0.0474139 30.8074 0.42419L28.599 4.83056L23.6606 5.54225C23.4999 5.56432 23.3431 5.63892 23.2194 5.76375C22.9212 6.06517 22.9281 6.54699 23.2333 6.84003L26.8055 10.2675L25.9625 15.1101C25.9347 15.2676 25.9579 15.4381 26.0406 15.5926C26.2391 15.9649 26.7066 16.108 27.0845 15.9123L31.4997 13.625L35.9157 15.9123C36.0595 15.9877 36.231 16.0181 36.4056 15.9892C36.826 15.9184 37.1088 15.5249 37.0369 15.1101L36.1939 10.2675L39.7661 6.84003C39.8828 6.7289 39.9662 6.57819 39.9917 6.40465C40.0536 5.98905 39.7615 5.60238 39.3388 5.54149L34.4012 4.83056L32.1928 0.42419Z" fill="#ECC92A"/>
<path d="M32.1928 0.42419C32.1218 0.28033 32.0012 0.15626 31.842 0.0786216C31.4595 -0.107102 30.9959 0.0474139 30.8074 0.42419L28.599 4.83056L23.6606 5.54225C23.4999 5.56432 23.3431 5.63892 23.2194 5.76375C22.9212 6.06517 22.9281 6.54699 23.2333 6.84003L26.8055 10.2675L25.9625 15.1101C25.9347 15.2676 25.9579 15.4381 26.0406 15.5926C26.2391 15.9649 26.7066 16.108 27.0845 15.9123L31.4997 13.625L35.9157 15.9123C36.0595 15.9877 36.231 16.0181 36.4056 15.9892C36.826 15.9184 37.1088 15.5249 37.0369 15.1101L36.1939 10.2675L39.7661 6.84003C39.8828 6.7289 39.9662 6.57819 39.9917 6.40465C40.0536 5.98905 39.7615 5.60238 39.3388 5.54149L34.4012 4.83056L32.1928 0.42419Z" fill="#ECC92A"/>
<path d="M55.1928 0.42419C55.1218 0.28033 55.0012 0.15626 54.842 0.0786216C54.4595 -0.107102 53.9959 0.0474139 53.8074 0.42419L51.599 4.83056L46.6606 5.54225C46.4999 5.56432 46.3431 5.63892 46.2194 5.76375C45.9212 6.06517 45.9281 6.54699 46.2333 6.84003L49.8055 10.2675L48.9625 15.1101C48.9347 15.2676 48.9579 15.4381 49.0406 15.5926C49.2391 15.9649 49.7066 16.108 50.0845 15.9123L54.4997 13.625L58.9157 15.9123C59.0595 15.9877 59.231 16.0181 59.4056 15.9892C59.826 15.9184 60.1088 15.5249 60.0369 15.1101L59.1939 10.2675L62.7661 6.84003C62.8828 6.7289 62.9662 6.57819 62.9917 6.40465C63.0536 5.98905 62.7615 5.60238 62.3388 5.54149L57.4012 4.83056L55.1928 0.42419Z" fill="#ECC92A"/>
<path d="M55.1928 0.42419C55.1218 0.28033 55.0012 0.15626 54.842 0.0786216C54.4595 -0.107102 53.9959 0.0474139 53.8074 0.42419L51.599 4.83056L46.6606 5.54225C46.4999 5.56432 46.3431 5.63892 46.2194 5.76375C45.9212 6.06517 45.9281 6.54699 46.2333 6.84003L49.8055 10.2675L48.9625 15.1101C48.9347 15.2676 48.9579 15.4381 49.0406 15.5926C49.2391 15.9649 49.7066 16.108 50.0845 15.9123L54.4997 13.625L58.9157 15.9123C59.0595 15.9877 59.231 16.0181 59.4056 15.9892C59.826 15.9184 60.1088 15.5249 60.0369 15.1101L59.1939 10.2675L62.7661 6.84003C62.8828 6.7289 62.9662 6.57819 62.9917 6.40465C63.0536 5.98905 62.7615 5.60238 62.3388 5.54149L57.4012 4.83056L55.1928 0.42419Z" fill="#ECC92A"/>
<path d="M78.1928 0.42419C78.1218 0.28033 78.0012 0.15626 77.842 0.0786216C77.4595 -0.107102 76.9959 0.0474139 76.8074 0.42419L74.599 4.83056L69.6606 5.54225C69.4999 5.56432 69.3431 5.63892 69.2194 5.76375C68.9212 6.06517 68.9281 6.54699 69.2333 6.84003L72.8055 10.2675L71.9625 15.1101C71.9347 15.2676 71.9579 15.4381 72.0406 15.5926C72.2391 15.9649 72.7066 16.108 73.0845 15.9123L77.4997 13.625L81.9157 15.9123C82.0595 15.9877 82.231 16.0181 82.4056 15.9892C82.826 15.9184 83.1088 15.5249 83.0369 15.1101L82.1939 10.2675L85.7661 6.84003C85.8828 6.7289 85.9662 6.57819 85.9917 6.40465C86.0536 5.98905 85.7615 5.60238 85.3388 5.54149L80.4012 4.83056L78.1928 0.42419Z" fill="#ECC92A"/>
<path d="M78.1928 0.42419C78.1218 0.28033 78.0012 0.15626 77.842 0.0786216C77.4595 -0.107102 76.9959 0.0474139 76.8074 0.42419L74.599 4.83056L69.6606 5.54225C69.4999 5.56432 69.3431 5.63892 69.2194 5.76375C68.9212 6.06517 68.9281 6.54699 69.2333 6.84003L72.8055 10.2675L71.9625 15.1101C71.9347 15.2676 71.9579 15.4381 72.0406 15.5926C72.2391 15.9649 72.7066 16.108 73.0845 15.9123L77.4997 13.625L81.9157 15.9123C82.0595 15.9877 82.231 16.0181 82.4056 15.9892C82.826 15.9184 83.1088 15.5249 83.0369 15.1101L82.1939 10.2675L85.7661 6.84003C85.8828 6.7289 85.9662 6.57819 85.9917 6.40465C86.0536 5.98905 85.7615 5.60238 85.3388 5.54149L80.4012 4.83056L78.1928 0.42419Z" fill="#ECC92A"/>
<path d="M101.193 0.42419C101.122 0.28033 101.001 0.15626 100.842 0.0786216C100.46 -0.107102 99.9959 0.0474139 99.8074 0.42419L97.599 4.83056L92.6606 5.54225C92.4999 5.56432 92.3431 5.63892 92.2194 5.76375C91.9212 6.06517 91.9281 6.54699 92.2333 6.84003L95.8055 10.2675L94.9625 15.1101C94.9347 15.2676 94.9579 15.4381 95.0406 15.5926C95.2391 15.9649 95.7066 16.108 96.0845 15.9123L100.5 13.625L104.916 15.9123C105.059 15.9877 105.231 16.0181 105.406 15.9892C105.826 15.9184 106.109 15.5249 106.037 15.1101L105.194 10.2675L108.766 6.84003C108.883 6.7289 108.966 6.57819 108.992 6.40465C109.054 5.98905 108.761 5.60238 108.339 5.54149L103.401 4.83056L101.193 0.42419Z" fill="#ECC92A"/>
<path d="M101.193 0.42419C101.122 0.28033 101.001 0.15626 100.842 0.0786216C100.46 -0.107102 99.9959 0.0474139 99.8074 0.42419L97.599 4.83056L92.6606 5.54225C92.4999 5.56432 92.3431 5.63892 92.2194 5.76375C91.9212 6.06517 91.9281 6.54699 92.2333 6.84003L95.8055 10.2675L94.9625 15.1101C94.9347 15.2676 94.9579 15.4381 95.0406 15.5926C95.2391 15.9649 95.7066 16.108 96.0845 15.9123L100.5 13.625L104.916 15.9123C105.059 15.9877 105.231 16.0181 105.406 15.9892C105.826 15.9184 106.109 15.5249 106.037 15.1101L105.194 10.2675L108.766 6.84003C108.883 6.7289 108.966 6.57819 108.992 6.40465C109.054 5.98905 108.761 5.60238 108.339 5.54149L103.401 4.83056L101.193 0.42419Z" fill="#ECC92A"/>
</svg>
