<svg width="93" height="17" viewBox="0 0 93 17" fill="none" xmlns="http://www.w3.org/2000/svg">
<path d="M7.57057 0.405201C7.51203 0.288315 7.41276 0.187508 7.28167 0.124427C6.96668 -0.0264736 6.58488 0.0990707 6.42961 0.405201L4.61093 3.98538L0.544051 4.56362C0.411691 4.58156 0.282513 4.64217 0.180698 4.74359C-0.0649311 4.9885 -0.0592039 5.37997 0.192152 5.61807L3.13398 8.40293L2.43972 12.3375C2.41681 12.4655 2.4359 12.604 2.50399 12.7296C2.66753 13.032 3.05252 13.1483 3.3637 12.9893L6.99977 11.1309L10.6365 12.9893C10.7548 13.0505 10.8961 13.0753 11.0399 13.0518C11.3861 12.9943 11.619 12.6745 11.5598 12.3375L10.8656 8.40293L13.8074 5.61807C13.9035 5.52778 13.9722 5.40533 13.9932 5.26432C14.0441 4.92665 13.8036 4.61248 13.4555 4.56301L9.38925 3.98538L7.57057 0.405201Z" fill="#ECC92A"/>
<path d="M7.57057 0.405201C7.51203 0.288315 7.41276 0.187508 7.28167 0.124427C6.96668 -0.0264736 6.58488 0.0990707 6.42961 0.405201L4.61093 3.98538L0.544051 4.56362C0.411691 4.58156 0.282513 4.64217 0.180698 4.74359C-0.0649311 4.9885 -0.0592039 5.37997 0.192152 5.61807L3.13398 8.40293L2.43972 12.3375C2.41681 12.4655 2.4359 12.604 2.50399 12.7296C2.66753 13.032 3.05252 13.1483 3.3637 12.9893L6.99977 11.1309L10.6365 12.9893C10.7548 13.0505 10.8961 13.0753 11.0399 13.0518C11.3861 12.9943 11.619 12.6745 11.5598 12.3375L10.8656 8.40293L13.8074 5.61807C13.9035 5.52778 13.9722 5.40533 13.9932 5.26432C14.0441 4.92665 13.8036 4.61248 13.4555 4.56301L9.38925 3.98538L7.57057 0.405201Z" fill="#ECC92A"/>
<path d="M26.5706 0.405201C26.512 0.288315 26.4128 0.187508 26.2817 0.124427C25.9667 -0.0264736 25.5849 0.0990707 25.4296 0.405201L23.6109 3.98538L19.5441 4.56362C19.4117 4.58156 19.2825 4.64217 19.1807 4.74359C18.9351 4.9885 18.9408 5.37997 19.1922 5.61807L22.134 8.40293L21.4397 12.3375C21.4168 12.4655 21.4359 12.604 21.504 12.7296C21.6675 13.032 22.0525 13.1483 22.3637 12.9893L25.9998 11.1309L29.6365 12.9893C29.7548 13.0505 29.8961 13.0753 30.0399 13.0518C30.3861 12.9943 30.619 12.6745 30.5598 12.3375L29.8656 8.40293L32.8074 5.61807C32.9035 5.52778 32.9722 5.40533 32.9932 5.26432C33.0441 4.92665 32.8036 4.61248 32.4555 4.56301L28.3892 3.98538L26.5706 0.405201Z" fill="#ECC92A"/>
<path d="M26.5706 0.405201C26.512 0.288315 26.4128 0.187508 26.2817 0.124427C25.9667 -0.0264736 25.5849 0.0990707 25.4296 0.405201L23.6109 3.98538L19.5441 4.56362C19.4117 4.58156 19.2825 4.64217 19.1807 4.74359C18.9351 4.9885 18.9408 5.37997 19.1922 5.61807L22.134 8.40293L21.4397 12.3375C21.4168 12.4655 21.4359 12.604 21.504 12.7296C21.6675 13.032 22.0525 13.1483 22.3637 12.9893L25.9998 11.1309L29.6365 12.9893C29.7548 13.0505 29.8961 13.0753 30.0399 13.0518C30.3861 12.9943 30.619 12.6745 30.5598 12.3375L29.8656 8.40293L32.8074 5.61807C32.9035 5.52778 32.9722 5.40533 32.9932 5.26432C33.0441 4.92665 32.8036 4.61248 32.4555 4.56301L28.3892 3.98538L26.5706 0.405201Z" fill="#ECC92A"/>
<path d="M45.5706 0.405201C45.512 0.288315 45.4128 0.187508 45.2817 0.124427C44.9667 -0.0264736 44.5849 0.0990707 44.4296 0.405201L42.6109 3.98538L38.5441 4.56362C38.4117 4.58156 38.2825 4.64217 38.1807 4.74359C37.9351 4.9885 37.9408 5.37997 38.1922 5.61807L41.134 8.40293L40.4397 12.3375C40.4168 12.4655 40.4359 12.604 40.504 12.7296C40.6675 13.032 41.0525 13.1483 41.3637 12.9893L44.9998 11.1309L48.6365 12.9893C48.7548 13.0505 48.8961 13.0753 49.0399 13.0518C49.3861 12.9943 49.619 12.6745 49.5598 12.3375L48.8656 8.40293L51.8074 5.61807C51.9035 5.52778 51.9722 5.40533 51.9932 5.26432C52.0441 4.92665 51.8036 4.61248 51.4555 4.56301L47.3892 3.98538L45.5706 0.405201Z" fill="#ECC92A"/>
<path d="M45.5706 0.405201C45.512 0.288315 45.4128 0.187508 45.2817 0.124427C44.9667 -0.0264736 44.5849 0.0990707 44.4296 0.405201L42.6109 3.98538L38.5441 4.56362C38.4117 4.58156 38.2825 4.64217 38.1807 4.74359C37.9351 4.9885 37.9408 5.37997 38.1922 5.61807L41.134 8.40293L40.4397 12.3375C40.4168 12.4655 40.4359 12.604 40.504 12.7296C40.6675 13.032 41.0525 13.1483 41.3637 12.9893L44.9998 11.1309L48.6365 12.9893C48.7548 13.0505 48.8961 13.0753 49.0399 13.0518C49.3861 12.9943 49.619 12.6745 49.5598 12.3375L48.8656 8.40293L51.8074 5.61807C51.9035 5.52778 51.9722 5.40533 51.9932 5.26432C52.0441 4.92665 51.8036 4.61248 51.4555 4.56301L47.3892 3.98538L45.5706 0.405201Z" fill="#ECC92A"/>
<path d="M64.5706 0.405201C64.512 0.288315 64.4128 0.187508 64.2817 0.124427C63.9667 -0.0264736 63.5849 0.0990707 63.4296 0.405201L61.6109 3.98538L57.5441 4.56362C57.4117 4.58156 57.2825 4.64217 57.1807 4.74359C56.9351 4.9885 56.9408 5.37997 57.1922 5.61807L60.134 8.40293L59.4397 12.3375C59.4168 12.4655 59.4359 12.604 59.504 12.7296C59.6675 13.032 60.0525 13.1483 60.3637 12.9893L63.9998 11.1309L67.6365 12.9893C67.7548 13.0505 67.8961 13.0753 68.0399 13.0518C68.3861 12.9943 68.619 12.6745 68.5598 12.3375L67.8656 8.40293L70.8074 5.61807C70.9035 5.52778 70.9722 5.40533 70.9932 5.26432C71.0441 4.92665 70.8036 4.61248 70.4555 4.56301L66.3892 3.98538L64.5706 0.405201Z" fill="#ECC92A"/>
<path d="M64.5706 0.405201C64.512 0.288315 64.4128 0.187508 64.2817 0.124427C63.9667 -0.0264736 63.5849 0.0990707 63.4296 0.405201L61.6109 3.98538L57.5441 4.56362C57.4117 4.58156 57.2825 4.64217 57.1807 4.74359C56.9351 4.9885 56.9408 5.37997 57.1922 5.61807L60.134 8.40293L59.4397 12.3375C59.4168 12.4655 59.4359 12.604 59.504 12.7296C59.6675 13.032 60.0525 13.1483 60.3637 12.9893L63.9998 11.1309L67.6365 12.9893C67.7548 13.0505 67.8961 13.0753 68.0399 13.0518C68.3861 12.9943 68.619 12.6745 68.5598 12.3375L67.8656 8.40293L70.8074 5.61807C70.9035 5.52778 70.9722 5.40533 70.9932 5.26432C71.0441 4.92665 70.8036 4.61248 70.4555 4.56301L66.3892 3.98538L64.5706 0.405201Z" fill="#ECC92A"/>
<path d="M83.5706 0.405201C83.512 0.288315 83.4128 0.187508 83.2817 0.124427C82.9667 -0.0264736 82.5849 0.0990707 82.4296 0.405201L80.6109 3.98538L76.5441 4.56362C76.4117 4.58156 76.2825 4.64217 76.1807 4.74359C75.9351 4.9885 75.9408 5.37997 76.1922 5.61807L79.134 8.40293L78.4397 12.3375C78.4168 12.4655 78.4359 12.604 78.504 12.7296C78.6675 13.032 79.0525 13.1483 79.3637 12.9893L82.9998 11.1309L86.6365 12.9893C86.7548 13.0505 86.8961 13.0753 87.0399 13.0518C87.3861 12.9943 87.619 12.6745 87.5598 12.3375L86.8656 8.40293L89.8074 5.61807C89.9035 5.52778 89.9722 5.40533 89.9932 5.26432C90.0441 4.92665 89.8036 4.61248 89.4555 4.56301L85.3892 3.98538L83.5706 0.405201Z" fill="#ECC92A"/>
<path d="M83.5706 0.405201C83.512 0.288315 83.4128 0.187508 83.2817 0.124427C82.9667 -0.0264736 82.5849 0.0990707 82.4296 0.405201L80.6109 3.98538L76.5441 4.56362C76.4117 4.58156 76.2825 4.64217 76.1807 4.74359C75.9351 4.9885 75.9408 5.37997 76.1922 5.61807L79.134 8.40293L78.4397 12.3375C78.4168 12.4655 78.4359 12.604 78.504 12.7296C78.6675 13.032 79.0525 13.1483 79.3637 12.9893L82.9998 11.1309L86.6365 12.9893C86.7548 13.0505 86.8961 13.0753 87.0399 13.0518C87.3861 12.9943 87.619 12.6745 87.5598 12.3375L86.8656 8.40293L89.8074 5.61807C89.9035 5.52778 89.9722 5.40533 89.9932 5.26432C90.0441 4.92665 89.8036 4.61248 89.4555 4.56301L85.3892 3.98538L83.5706 0.405201Z" fill="#ECC92A"/>
</svg>
