<svg width="20" height="21" viewBox="0 0 20 21" fill="none" xmlns="http://www.w3.org/2000/svg">
<path d="M10 1.65625C8.1773 1.6584 6.42987 2.38342 5.14102 3.67227C3.85218 4.96111 3.12716 6.70855 3.12501 8.53125C3.12282 10.0208 3.60937 11.4699 4.51001 12.6562C4.51001 12.6562 4.69751 12.9031 4.72813 12.9388L10 19.1562L15.2744 12.9356C15.3019 12.9025 15.49 12.6562 15.49 12.6562L15.4906 12.6544C16.3908 11.4685 16.8771 10.0201 16.875 8.53125C16.8729 6.70855 16.1478 4.96111 14.859 3.67227C13.5701 2.38342 11.8227 1.6584 10 1.65625ZM10 11.0312C9.50555 11.0312 9.0222 10.8846 8.61108 10.6099C8.19996 10.3352 7.87953 9.94477 7.69031 9.48796C7.50109 9.03114 7.45158 8.52848 7.54804 8.04352C7.64451 7.55857 7.88261 7.11311 8.23224 6.76348C8.58187 6.41385 9.02733 6.17575 9.51228 6.07929C9.99723 5.98282 10.4999 6.03233 10.9567 6.22155C11.4135 6.41077 11.804 6.7312 12.0787 7.14232C12.3534 7.55345 12.5 8.0368 12.5 8.53125C12.4992 9.19404 12.2355 9.82944 11.7669 10.2981C11.2982 10.7668 10.6628 11.0304 10 11.0312Z" fill="white"/>
</svg>
